<svg width="51" height="15" viewBox="0 0 51 15" fill="none" xmlns="http://www.w3.org/2000/svg">
<rect width="46" height="15" rx="7.5" fill="#512BD4"/>
<path d="M17.7031 10.5215C17.7031 10.3685 17.7503 10.2399 17.8447 10.1357C17.9424 10.0283 18.0824 9.97461 18.2646 9.97461C18.4469 9.97461 18.5853 10.0283 18.6797 10.1357C18.7773 10.2399 18.8262 10.3685 18.8262 10.5215C18.8262 10.6712 18.7773 10.7982 18.6797 10.9023C18.5853 11.0065 18.4469 11.0586 18.2646 11.0586C18.0824 11.0586 17.9424 11.0065 17.8447 10.9023C17.7503 10.7982 17.7031 10.6712 17.7031 10.5215ZM25.9307 3.89062V11H24.9834L21.4043 5.5166V11H20.4619V3.89062H21.4043L24.998 9.38867V3.89062H25.9307ZM32.1172 10.2334V11H28.3525V10.2334H32.1172ZM28.543 3.89062V11H27.6006V3.89062H28.543ZM31.6191 6.94727V7.71387H28.3525V6.94727H31.6191ZM32.0684 3.89062V4.66211H28.3525V3.89062H32.0684ZM36.0088 3.89062V11H35.0811V3.89062H36.0088ZM38.2939 3.89062V4.66211H32.8008V3.89062H38.2939Z" fill="white"/>
<g clip-path="url(#clip0_118_15)">
<path d="M14.7167 5.55137C14.7167 5.40788 14.6855 5.28103 14.6227 5.17229C14.556 5.06016 14.4601 4.9678 14.3449 4.90491C13.3219 4.32144 12.2978 3.74063 11.2757 3.15715C11.0001 2.9997 10.7328 3.00564 10.4593 3.16518C10.0523 3.40225 8.01385 4.55643 7.40663 4.90402C7.15623 5.04781 7.03478 5.26677 7.03418 5.55108V9.06769C7.03418 9.20791 7.06424 9.3321 7.12406 9.43934C7.18568 9.54986 7.27947 9.64196 7.40603 9.71445C8.01355 10.062 10.052 11.2162 10.459 11.4533C10.7328 11.6131 11.0001 11.6188 11.2757 11.4613C12.2984 10.8778 13.3222 10.2967 14.3449 9.71415C14.4629 9.65 14.5607 9.55491 14.6275 9.43934C14.6873 9.3321 14.717 9.20762 14.717 9.06739L14.7167 5.55137Z" fill="#A179DC"/>
<path d="M10.8871 7.29785L7.12354 9.43955C7.18546 9.54947 7.27925 9.64157 7.4061 9.71435C8.01333 10.0619 10.0517 11.2161 10.4587 11.4532C10.7326 11.613 10.9998 11.6187 11.2755 11.4612C12.2982 10.8777 13.322 10.2966 14.3447 9.71406C14.4627 9.64991 14.5604 9.55482 14.6272 9.43925L10.8871 7.29785Z" fill="#280068"/>
<path d="M14.7166 5.55145C14.7166 5.40795 14.6854 5.2811 14.6225 5.17236L10.8872 7.29802L14.627 9.43912C14.6872 9.33217 14.7169 9.20769 14.7172 9.06746C14.7172 9.06746 14.7172 6.72345 14.7166 5.55145Z" fill="#390091"/>
<path d="M13.1034 6.49766V6.89784H13.5083V6.49737H13.7107V6.89784H14.1159V7.09778H13.7107V7.49825H14.1159V7.69849H13.7107V8.09866H13.5083V7.69789H13.1031V8.09837H12.9008V7.69789H12.4956V7.49795H12.9005V7.09778H12.4956V6.89754H12.9005V6.49707L13.1034 6.49766ZM13.5083 7.09778H13.1031V7.49825H13.5083V7.09778Z" fill="white"/>
<path d="M10.8958 4.4873C11.3969 4.4871 11.8892 4.61726 12.3233 4.86471C12.7573 5.11216 13.1179 5.46818 13.3686 5.89698L13.3638 5.88896L12.1208 6.59602C11.9966 6.38766 11.82 6.21452 11.6083 6.09335C11.3965 5.97219 11.1567 5.9071 10.912 5.90441H10.8958C10.5187 5.90441 10.157 6.05246 9.89038 6.31599C9.62373 6.57952 9.47393 6.93694 9.47393 7.30963C9.47359 7.55423 9.53816 7.79465 9.6612 8.00689C9.78583 8.22282 9.96621 8.40219 10.1839 8.5267C10.4016 8.6512 10.6489 8.71637 10.9004 8.71555C11.1519 8.71474 11.3987 8.64797 11.6156 8.52205C11.8325 8.39614 12.0117 8.2156 12.1349 7.99887L12.1289 8.00926L13.3701 8.7196C13.1223 9.1445 12.7667 9.49822 12.3384 9.74589C11.9101 9.99356 11.4239 10.1266 10.9277 10.1319H10.8958C10.5207 10.1321 10.1493 10.0592 9.80275 9.91743C9.45621 9.77565 9.14133 9.56776 8.87612 9.30566C8.6109 9.04355 8.40056 8.73236 8.2571 8.38987C8.11364 8.04738 8.03988 7.6803 8.04004 7.30963C8.04004 6.5611 8.34091 5.84323 8.87647 5.31394C9.41202 4.78466 10.1384 4.4873 10.8958 4.4873Z" fill="white"/>
</g>
<defs>
<clipPath id="clip0_118_15">
<rect width="7.75109" height="8.61877" fill="white" transform="translate(7 3)"/>
</clipPath>
</defs>
</svg>
