<svg width="48" height="15" viewBox="0 0 48 15" fill="none" xmlns="http://www.w3.org/2000/svg">
<rect width="48" height="15" rx="7.5" fill="#023D27"/>
<path d="M22.6494 9H21.7588L21.7646 8.54004H22.6494C22.9541 8.54004 23.208 8.47656 23.4111 8.34961C23.6143 8.2207 23.7666 8.04102 23.8682 7.81055C23.9717 7.57812 24.0234 7.30664 24.0234 6.99609V6.73535C24.0234 6.49121 23.9941 6.27441 23.9355 6.08496C23.877 5.89355 23.791 5.73242 23.6777 5.60156C23.5645 5.46875 23.4258 5.36816 23.2617 5.2998C23.0996 5.23145 22.9131 5.19727 22.7021 5.19727H21.7412V4.73438H22.7021C22.9814 4.73438 23.2363 4.78125 23.4668 4.875C23.6973 4.9668 23.8955 5.10059 24.0615 5.27637C24.2295 5.4502 24.3584 5.66113 24.4482 5.90918C24.5381 6.15527 24.583 6.43262 24.583 6.74121V6.99609C24.583 7.30469 24.5381 7.58301 24.4482 7.83105C24.3584 8.07715 24.2285 8.28711 24.0586 8.46094C23.8906 8.63477 23.6875 8.76855 23.4492 8.8623C23.2129 8.9541 22.9463 9 22.6494 9ZM22.0605 4.73438V9H21.4951V4.73438H22.0605ZM25.3652 5.83008H25.9102V9.37793C25.9102 9.57129 25.8789 9.73535 25.8164 9.87012C25.7559 10.0049 25.6641 10.1064 25.541 10.1748C25.4199 10.2451 25.2666 10.2803 25.0811 10.2803C25.0322 10.2803 24.9756 10.2754 24.9111 10.2656C24.8447 10.2559 24.7891 10.2441 24.7441 10.2305L24.7471 9.79395C24.7842 9.80176 24.8262 9.80762 24.873 9.81152C24.9199 9.81738 24.9609 9.82031 24.9961 9.82031C25.0762 9.82031 25.1436 9.80566 25.1982 9.77637C25.2529 9.74707 25.2939 9.7002 25.3213 9.63574C25.3506 9.57129 25.3652 9.48535 25.3652 9.37793V5.83008ZM25.3096 4.98926C25.3096 4.90137 25.3369 4.82715 25.3916 4.7666C25.4463 4.70605 25.5254 4.67578 25.6289 4.67578C25.7344 4.67578 25.8145 4.70605 25.8691 4.7666C25.9238 4.82715 25.9512 4.90137 25.9512 4.98926C25.9512 5.07324 25.9238 5.14551 25.8691 5.20605C25.8145 5.26465 25.7344 5.29395 25.6289 5.29395C25.5254 5.29395 25.4463 5.26465 25.3916 5.20605C25.3369 5.14551 25.3096 5.07324 25.3096 4.98926ZM28.6553 8.45801V6.82617C28.6553 6.70117 28.6299 6.59277 28.5791 6.50098C28.5303 6.40723 28.4561 6.33496 28.3564 6.28418C28.2568 6.2334 28.1338 6.20801 27.9873 6.20801C27.8506 6.20801 27.7305 6.23145 27.627 6.27832C27.5254 6.3252 27.4453 6.38672 27.3867 6.46289C27.3301 6.53906 27.3018 6.62109 27.3018 6.70898H26.7598C26.7598 6.5957 26.7891 6.4834 26.8477 6.37207C26.9062 6.26074 26.9902 6.16016 27.0996 6.07031C27.2109 5.97852 27.3438 5.90625 27.498 5.85352C27.6543 5.79883 27.8281 5.77148 28.0195 5.77148C28.25 5.77148 28.4531 5.81055 28.6289 5.88867C28.8066 5.9668 28.9453 6.08496 29.0449 6.24316C29.1465 6.39941 29.1973 6.5957 29.1973 6.83203V8.30859C29.1973 8.41406 29.2061 8.52637 29.2236 8.64551C29.2432 8.76465 29.2715 8.86719 29.3086 8.95312V9H28.7432C28.7158 8.9375 28.6943 8.85449 28.6787 8.75098C28.6631 8.64551 28.6553 8.54785 28.6553 8.45801ZM28.749 7.07812L28.7549 7.45898H28.207C28.0527 7.45898 27.915 7.47168 27.7939 7.49707C27.6729 7.52051 27.5713 7.55664 27.4893 7.60547C27.4072 7.6543 27.3447 7.71582 27.3018 7.79004C27.2588 7.8623 27.2373 7.94727 27.2373 8.04492C27.2373 8.14453 27.2598 8.23535 27.3047 8.31738C27.3496 8.39941 27.417 8.46484 27.5068 8.51367C27.5986 8.56055 27.7109 8.58398 27.8438 8.58398C28.0098 8.58398 28.1562 8.54883 28.2832 8.47852C28.4102 8.4082 28.5107 8.32227 28.585 8.2207C28.6611 8.11914 28.7021 8.02051 28.708 7.9248L28.9395 8.18555C28.9258 8.26758 28.8887 8.3584 28.8281 8.45801C28.7676 8.55762 28.6865 8.65332 28.585 8.74512C28.4854 8.83496 28.3662 8.91016 28.2275 8.9707C28.0908 9.0293 27.9365 9.05859 27.7646 9.05859C27.5498 9.05859 27.3613 9.0166 27.1992 8.93262C27.0391 8.84863 26.9141 8.73633 26.8242 8.5957C26.7363 8.45312 26.6924 8.29395 26.6924 8.11816C26.6924 7.94824 26.7256 7.79883 26.792 7.66992C26.8584 7.53906 26.9541 7.43066 27.0791 7.34473C27.2041 7.25684 27.3545 7.19043 27.5303 7.14551C27.7061 7.10059 27.9023 7.07812 28.1191 7.07812H28.749ZM30.5918 6.50684V9H30.0498V5.83008H30.5625L30.5918 6.50684ZM30.4629 7.29492L30.2373 7.28613C30.2393 7.06934 30.2715 6.86914 30.334 6.68555C30.3965 6.5 30.4844 6.33887 30.5977 6.20215C30.7109 6.06543 30.8457 5.95996 31.002 5.88574C31.1602 5.80957 31.335 5.77148 31.5264 5.77148C31.6826 5.77148 31.8232 5.79297 31.9482 5.83594C32.0732 5.87695 32.1797 5.94336 32.2676 6.03516C32.3574 6.12695 32.4258 6.24609 32.4727 6.39258C32.5195 6.53711 32.543 6.71387 32.543 6.92285V9H31.998V6.91699C31.998 6.75098 31.9736 6.61816 31.9248 6.51855C31.876 6.41699 31.8047 6.34375 31.7109 6.29883C31.6172 6.25195 31.502 6.22852 31.3652 6.22852C31.2305 6.22852 31.1074 6.25684 30.9961 6.31348C30.8867 6.37012 30.792 6.44824 30.7119 6.54785C30.6338 6.64746 30.5723 6.76172 30.5273 6.89062C30.4844 7.01758 30.4629 7.15234 30.4629 7.29492ZM35.4199 5.83008H35.9121V8.93262C35.9121 9.21191 35.8555 9.4502 35.7422 9.64746C35.6289 9.84473 35.4707 9.99414 35.2676 10.0957C35.0664 10.1992 34.834 10.251 34.5703 10.251C34.4609 10.251 34.332 10.2334 34.1836 10.1982C34.0371 10.165 33.8926 10.1074 33.75 10.0254C33.6094 9.94531 33.4912 9.83691 33.3955 9.7002L33.6797 9.37793C33.8125 9.53809 33.9512 9.64941 34.0957 9.71191C34.2422 9.77441 34.3867 9.80566 34.5293 9.80566C34.7012 9.80566 34.8496 9.77344 34.9746 9.70898C35.0996 9.64453 35.1963 9.54883 35.2646 9.42188C35.335 9.29688 35.3701 9.14258 35.3701 8.95898V6.52734L35.4199 5.83008ZM33.2373 7.4502V7.38867C33.2373 7.14648 33.2656 6.92676 33.3223 6.72949C33.3809 6.53027 33.4639 6.35938 33.5713 6.2168C33.6807 6.07422 33.8125 5.96484 33.9668 5.88867C34.1211 5.81055 34.2949 5.77148 34.4883 5.77148C34.6875 5.77148 34.8613 5.80664 35.0098 5.87695C35.1602 5.94531 35.2871 6.0459 35.3906 6.17871C35.4961 6.30957 35.5791 6.46777 35.6396 6.65332C35.7002 6.83887 35.7422 7.04883 35.7656 7.2832V7.55273C35.7441 7.78516 35.7021 7.99414 35.6396 8.17969C35.5791 8.36523 35.4961 8.52344 35.3906 8.6543C35.2871 8.78516 35.1602 8.88574 35.0098 8.95605C34.8594 9.02441 34.6836 9.05859 34.4824 9.05859C34.293 9.05859 34.1211 9.01855 33.9668 8.93848C33.8145 8.8584 33.6836 8.74609 33.5742 8.60156C33.4648 8.45703 33.3809 8.28711 33.3223 8.0918C33.2656 7.89453 33.2373 7.68066 33.2373 7.4502ZM33.7793 7.38867V7.4502C33.7793 7.6084 33.7949 7.75684 33.8262 7.89551C33.8594 8.03418 33.9092 8.15625 33.9756 8.26172C34.0439 8.36719 34.1309 8.4502 34.2363 8.51074C34.3418 8.56934 34.4678 8.59863 34.6143 8.59863C34.7939 8.59863 34.9424 8.56055 35.0596 8.48438C35.1768 8.4082 35.2695 8.30762 35.3379 8.18262C35.4082 8.05762 35.4629 7.92188 35.502 7.77539V7.06934C35.4805 6.96191 35.4473 6.8584 35.4023 6.75879C35.3594 6.65723 35.3027 6.56738 35.2324 6.48926C35.1641 6.40918 35.0791 6.3457 34.9775 6.29883C34.876 6.25195 34.7568 6.22852 34.6201 6.22852C34.4717 6.22852 34.3438 6.25977 34.2363 6.32227C34.1309 6.38281 34.0439 6.4668 33.9756 6.57422C33.9092 6.67969 33.8594 6.80273 33.8262 6.94336C33.7949 7.08203 33.7793 7.23047 33.7793 7.38867ZM36.5918 7.4502V7.38281C36.5918 7.1543 36.625 6.94238 36.6914 6.74707C36.7578 6.5498 36.8535 6.37891 36.9785 6.23438C37.1035 6.08789 37.2549 5.97461 37.4326 5.89453C37.6104 5.8125 37.8096 5.77148 38.0303 5.77148C38.2529 5.77148 38.4531 5.8125 38.6309 5.89453C38.8105 5.97461 38.9629 6.08789 39.0879 6.23438C39.2148 6.37891 39.3115 6.5498 39.3779 6.74707C39.4443 6.94238 39.4775 7.1543 39.4775 7.38281V7.4502C39.4775 7.67871 39.4443 7.89062 39.3779 8.08594C39.3115 8.28125 39.2148 8.45215 39.0879 8.59863C38.9629 8.74316 38.8115 8.85645 38.6338 8.93848C38.458 9.01855 38.2588 9.05859 38.0361 9.05859C37.8135 9.05859 37.6133 9.01855 37.4355 8.93848C37.2578 8.85645 37.1055 8.74316 36.9785 8.59863C36.8535 8.45215 36.7578 8.28125 36.6914 8.08594C36.625 7.89062 36.5918 7.67871 36.5918 7.4502ZM37.1338 7.38281V7.4502C37.1338 7.6084 37.1523 7.75781 37.1895 7.89844C37.2266 8.03711 37.2822 8.16016 37.3564 8.26758C37.4326 8.375 37.5273 8.45996 37.6406 8.52246C37.7539 8.58301 37.8857 8.61328 38.0361 8.61328C38.1846 8.61328 38.3145 8.58301 38.4258 8.52246C38.5391 8.45996 38.6328 8.375 38.707 8.26758C38.7812 8.16016 38.8369 8.03711 38.874 7.89844C38.9131 7.75781 38.9326 7.6084 38.9326 7.4502V7.38281C38.9326 7.22656 38.9131 7.0791 38.874 6.94043C38.8369 6.7998 38.7803 6.67578 38.7041 6.56836C38.6299 6.45898 38.5361 6.37305 38.4229 6.31055C38.3115 6.24805 38.1807 6.2168 38.0303 6.2168C37.8818 6.2168 37.751 6.24805 37.6377 6.31055C37.5264 6.37305 37.4326 6.45898 37.3564 6.56836C37.2822 6.67578 37.2266 6.7998 37.1895 6.94043C37.1523 7.0791 37.1338 7.22656 37.1338 7.38281Z" fill="white"/>
<path d="M9.62568 1.875H11.4843V10.3917C10.6909 10.5545 9.88339 10.6385 9.0735 10.6425C6.80381 10.6402 5.62256 9.62625 5.62256 7.67906C5.62256 5.80406 6.87553 4.58531 8.81756 4.58531C9.08993 4.58 9.36176 4.61154 9.62568 4.67906V1.875ZM9.62568 6.16031C9.42363 6.09366 9.21168 6.06196 8.99897 6.06656C8.06147 6.06656 7.51631 6.63984 7.51631 7.64437C7.51631 8.62266 8.03521 9.16266 8.98725 9.16266C9.20092 9.16261 9.4143 9.14694 9.62568 9.11578V6.16266V6.16031Z" fill="#44B78B"/>
<path d="M14.4377 4.71518V8.98081C14.4377 10.4494 14.3275 11.1553 14.005 11.7642C13.6759 12.3834 13.1377 12.8656 12.4863 13.125L10.7622 12.3127C11.3885 12.0982 11.9131 11.6591 12.2346 11.0803C12.4999 10.5549 12.5838 9.94596 12.5838 8.34424V4.71518H14.4377ZM12.5819 1.8844H14.44V3.77252H12.5819V1.8844Z" fill="#44B78B"/>
</svg>
