<svg width="56" height="15" viewBox="0 0 56 15" fill="none" xmlns="http://www.w3.org/2000/svg">
<rect width="56" height="15" rx="7.5" fill="#073D68"/>
<path d="M20.0684 8.32715H18.9287V7.86719H20.0684C20.2891 7.86719 20.4678 7.83203 20.6045 7.76172C20.7412 7.69141 20.8408 7.59375 20.9033 7.46875C20.9678 7.34375 21 7.20117 21 7.04102C21 6.89453 20.9678 6.75684 20.9033 6.62793C20.8408 6.49902 20.7412 6.39551 20.6045 6.31738C20.4678 6.2373 20.2891 6.19727 20.0684 6.19727H19.0605V10H18.4951V5.73438H20.0684C20.3906 5.73438 20.6631 5.79004 20.8857 5.90137C21.1084 6.0127 21.2773 6.16699 21.3926 6.36426C21.5078 6.55957 21.5654 6.7832 21.5654 7.03516C21.5654 7.30859 21.5078 7.54199 21.3926 7.73535C21.2773 7.92871 21.1084 8.07617 20.8857 8.17773C20.6631 8.27734 20.3906 8.32715 20.0684 8.32715ZM22.0137 8.4502V8.38281C22.0137 8.1543 22.0469 7.94238 22.1133 7.74707C22.1797 7.5498 22.2754 7.37891 22.4004 7.23438C22.5254 7.08789 22.6768 6.97461 22.8545 6.89453C23.0322 6.8125 23.2314 6.77148 23.4521 6.77148C23.6748 6.77148 23.875 6.8125 24.0527 6.89453C24.2324 6.97461 24.3848 7.08789 24.5098 7.23438C24.6367 7.37891 24.7334 7.5498 24.7998 7.74707C24.8662 7.94238 24.8994 8.1543 24.8994 8.38281V8.4502C24.8994 8.67871 24.8662 8.89062 24.7998 9.08594C24.7334 9.28125 24.6367 9.45215 24.5098 9.59863C24.3848 9.74316 24.2334 9.85645 24.0557 9.93848C23.8799 10.0186 23.6807 10.0586 23.458 10.0586C23.2354 10.0586 23.0352 10.0186 22.8574 9.93848C22.6797 9.85645 22.5273 9.74316 22.4004 9.59863C22.2754 9.45215 22.1797 9.28125 22.1133 9.08594C22.0469 8.89062 22.0137 8.67871 22.0137 8.4502ZM22.5557 8.38281V8.4502C22.5557 8.6084 22.5742 8.75781 22.6113 8.89844C22.6484 9.03711 22.7041 9.16016 22.7783 9.26758C22.8545 9.375 22.9492 9.45996 23.0625 9.52246C23.1758 9.58301 23.3076 9.61328 23.458 9.61328C23.6064 9.61328 23.7363 9.58301 23.8477 9.52246C23.9609 9.45996 24.0547 9.375 24.1289 9.26758C24.2031 9.16016 24.2588 9.03711 24.2959 8.89844C24.335 8.75781 24.3545 8.6084 24.3545 8.4502V8.38281C24.3545 8.22656 24.335 8.0791 24.2959 7.94043C24.2588 7.7998 24.2021 7.67578 24.126 7.56836C24.0518 7.45898 23.958 7.37305 23.8447 7.31055C23.7334 7.24805 23.6025 7.2168 23.4521 7.2168C23.3037 7.2168 23.1729 7.24805 23.0596 7.31055C22.9482 7.37305 22.8545 7.45898 22.7783 7.56836C22.7041 7.67578 22.6484 7.7998 22.6113 7.94043C22.5742 8.0791 22.5557 8.22656 22.5557 8.38281ZM27.4248 9.15918C27.4248 9.08105 27.4072 9.00879 27.3721 8.94238C27.3389 8.87402 27.2695 8.8125 27.1641 8.75781C27.0605 8.70117 26.9043 8.65234 26.6953 8.61133C26.5195 8.57422 26.3604 8.53027 26.2178 8.47949C26.0771 8.42871 25.957 8.36719 25.8574 8.29492C25.7598 8.22266 25.6846 8.1377 25.6318 8.04004C25.5791 7.94238 25.5527 7.82812 25.5527 7.69727C25.5527 7.57227 25.5801 7.4541 25.6348 7.34277C25.6914 7.23145 25.7705 7.13281 25.8721 7.04688C25.9756 6.96094 26.0996 6.89355 26.2441 6.84473C26.3887 6.7959 26.5498 6.77148 26.7275 6.77148C26.9814 6.77148 27.1982 6.81641 27.3779 6.90625C27.5576 6.99609 27.6953 7.11621 27.791 7.2666C27.8867 7.41504 27.9346 7.58008 27.9346 7.76172H27.3926C27.3926 7.67383 27.3662 7.58887 27.3135 7.50684C27.2627 7.42285 27.1875 7.35352 27.0879 7.29883C26.9902 7.24414 26.8701 7.2168 26.7275 7.2168C26.5771 7.2168 26.4551 7.24023 26.3613 7.28711C26.2695 7.33203 26.2021 7.38965 26.1592 7.45996C26.1182 7.53027 26.0977 7.60449 26.0977 7.68262C26.0977 7.74121 26.1074 7.79395 26.127 7.84082C26.1484 7.88574 26.1855 7.92773 26.2383 7.9668C26.291 8.00391 26.3652 8.03906 26.4609 8.07227C26.5566 8.10547 26.6787 8.13867 26.8271 8.17188C27.0869 8.23047 27.3008 8.30078 27.4688 8.38281C27.6367 8.46484 27.7617 8.56543 27.8438 8.68457C27.9258 8.80371 27.9668 8.94824 27.9668 9.11816C27.9668 9.25684 27.9375 9.38379 27.8789 9.49902C27.8223 9.61426 27.7393 9.71387 27.6299 9.79785C27.5225 9.87988 27.3936 9.94434 27.2432 9.99121C27.0947 10.0361 26.9277 10.0586 26.7422 10.0586C26.4629 10.0586 26.2266 10.0088 26.0332 9.90918C25.8398 9.80957 25.6934 9.68066 25.5938 9.52246C25.4941 9.36426 25.4443 9.19727 25.4443 9.02148H25.9893C25.9971 9.16992 26.04 9.28809 26.1182 9.37598C26.1963 9.46191 26.292 9.52344 26.4053 9.56055C26.5186 9.5957 26.6309 9.61328 26.7422 9.61328C26.8906 9.61328 27.0146 9.59375 27.1143 9.55469C27.2158 9.51562 27.293 9.46191 27.3457 9.39355C27.3984 9.3252 27.4248 9.24707 27.4248 9.15918ZM30.0059 6.83008V7.24609H28.292V6.83008H30.0059ZM28.8721 6.05957H29.4141V9.21484C29.4141 9.32227 29.4307 9.40332 29.4639 9.45801C29.4971 9.5127 29.54 9.54883 29.5928 9.56641C29.6455 9.58398 29.7021 9.59277 29.7627 9.59277C29.8076 9.59277 29.8545 9.58887 29.9033 9.58105C29.9541 9.57129 29.9922 9.56348 30.0176 9.55762L30.0205 10C29.9775 10.0137 29.9209 10.0264 29.8506 10.0381C29.7822 10.0518 29.6992 10.0586 29.6016 10.0586C29.4688 10.0586 29.3467 10.0322 29.2354 9.97949C29.124 9.92676 29.0352 9.83887 28.9688 9.71582C28.9043 9.59082 28.8721 9.42285 28.8721 9.21191V6.05957ZM32.6953 6.83008H33.1875V9.93262C33.1875 10.2119 33.1309 10.4502 33.0176 10.6475C32.9043 10.8447 32.7461 10.9941 32.543 11.0957C32.3418 11.1992 32.1094 11.251 31.8457 11.251C31.7363 11.251 31.6074 11.2334 31.459 11.1982C31.3125 11.165 31.168 11.1074 31.0254 11.0254C30.8848 10.9453 30.7666 10.8369 30.6709 10.7002L30.9551 10.3779C31.0879 10.5381 31.2266 10.6494 31.3711 10.7119C31.5176 10.7744 31.6621 10.8057 31.8047 10.8057C31.9766 10.8057 32.125 10.7734 32.25 10.709C32.375 10.6445 32.4717 10.5488 32.54 10.4219C32.6104 10.2969 32.6455 10.1426 32.6455 9.95898V7.52734L32.6953 6.83008ZM30.5127 8.4502V8.38867C30.5127 8.14648 30.541 7.92676 30.5977 7.72949C30.6562 7.53027 30.7393 7.35938 30.8467 7.2168C30.9561 7.07422 31.0879 6.96484 31.2422 6.88867C31.3965 6.81055 31.5703 6.77148 31.7637 6.77148C31.9629 6.77148 32.1367 6.80664 32.2852 6.87695C32.4355 6.94531 32.5625 7.0459 32.666 7.17871C32.7715 7.30957 32.8545 7.46777 32.915 7.65332C32.9756 7.83887 33.0176 8.04883 33.041 8.2832V8.55273C33.0195 8.78516 32.9775 8.99414 32.915 9.17969C32.8545 9.36523 32.7715 9.52344 32.666 9.6543C32.5625 9.78516 32.4355 9.88574 32.2852 9.95605C32.1348 10.0244 31.959 10.0586 31.7578 10.0586C31.5684 10.0586 31.3965 10.0186 31.2422 9.93848C31.0898 9.8584 30.959 9.74609 30.8496 9.60156C30.7402 9.45703 30.6562 9.28711 30.5977 9.0918C30.541 8.89453 30.5127 8.68066 30.5127 8.4502ZM31.0547 8.38867V8.4502C31.0547 8.6084 31.0703 8.75684 31.1016 8.89551C31.1348 9.03418 31.1846 9.15625 31.251 9.26172C31.3193 9.36719 31.4062 9.4502 31.5117 9.51074C31.6172 9.56934 31.7432 9.59863 31.8896 9.59863C32.0693 9.59863 32.2178 9.56055 32.335 9.48438C32.4521 9.4082 32.5449 9.30762 32.6133 9.18262C32.6836 9.05762 32.7383 8.92188 32.7773 8.77539V8.06934C32.7559 7.96191 32.7227 7.8584 32.6777 7.75879C32.6348 7.65723 32.5781 7.56738 32.5078 7.48926C32.4395 7.40918 32.3545 7.3457 32.2529 7.29883C32.1514 7.25195 32.0322 7.22852 31.8955 7.22852C31.7471 7.22852 31.6191 7.25977 31.5117 7.32227C31.4062 7.38281 31.3193 7.4668 31.251 7.57422C31.1846 7.67969 31.1348 7.80273 31.1016 7.94336C31.0703 8.08203 31.0547 8.23047 31.0547 8.38867ZM34.5527 7.32812V10H34.0107V6.83008H34.5381L34.5527 7.32812ZM35.543 6.8125L35.54 7.31641C35.4951 7.30664 35.4521 7.30078 35.4111 7.29883C35.3721 7.29492 35.3271 7.29297 35.2764 7.29297C35.1514 7.29297 35.041 7.3125 34.9453 7.35156C34.8496 7.39062 34.7686 7.44531 34.7021 7.51562C34.6357 7.58594 34.583 7.66992 34.5439 7.76758C34.5068 7.86328 34.4824 7.96875 34.4707 8.08398L34.3184 8.17188C34.3184 7.98047 34.3369 7.80078 34.374 7.63281C34.4131 7.46484 34.4727 7.31641 34.5527 7.1875C34.6328 7.05664 34.7344 6.95508 34.8574 6.88281C34.9824 6.80859 35.1309 6.77148 35.3027 6.77148C35.3418 6.77148 35.3867 6.77637 35.4375 6.78613C35.4883 6.79395 35.5234 6.80273 35.543 6.8125ZM37.3008 10.0586C37.0801 10.0586 36.8799 10.0215 36.7002 9.94727C36.5225 9.87109 36.3691 9.76465 36.2402 9.62793C36.1133 9.49121 36.0156 9.3291 35.9473 9.1416C35.8789 8.9541 35.8447 8.74902 35.8447 8.52637V8.40332C35.8447 8.14551 35.8828 7.91602 35.959 7.71484C36.0352 7.51172 36.1387 7.33984 36.2695 7.19922C36.4004 7.05859 36.5488 6.95215 36.7148 6.87988C36.8809 6.80762 37.0527 6.77148 37.2305 6.77148C37.457 6.77148 37.6523 6.81055 37.8164 6.88867C37.9824 6.9668 38.1182 7.07617 38.2236 7.2168C38.3291 7.35547 38.4072 7.51953 38.458 7.70898C38.5088 7.89648 38.5342 8.10156 38.5342 8.32422V8.56738H36.167V8.125H37.9922V8.08398C37.9844 7.94336 37.9551 7.80664 37.9043 7.67383C37.8555 7.54102 37.7773 7.43164 37.6699 7.3457C37.5625 7.25977 37.416 7.2168 37.2305 7.2168C37.1074 7.2168 36.9941 7.24316 36.8906 7.2959C36.7871 7.34668 36.6982 7.42285 36.624 7.52441C36.5498 7.62598 36.4922 7.75 36.4512 7.89648C36.4102 8.04297 36.3896 8.21191 36.3896 8.40332V8.52637C36.3896 8.67676 36.4102 8.81836 36.4512 8.95117C36.4941 9.08203 36.5557 9.19727 36.6357 9.29688C36.7178 9.39648 36.8164 9.47461 36.9316 9.53125C37.0488 9.58789 37.1816 9.61621 37.3301 9.61621C37.5215 9.61621 37.6836 9.57715 37.8164 9.49902C37.9492 9.4209 38.0654 9.31641 38.165 9.18555L38.4932 9.44629C38.4248 9.5498 38.3379 9.64844 38.2324 9.74219C38.127 9.83594 37.9971 9.91211 37.8428 9.9707C37.6904 10.0293 37.5098 10.0586 37.3008 10.0586ZM41.5225 8.92188C41.5225 8.82227 41.5068 8.73438 41.4756 8.6582C41.4463 8.58008 41.3936 8.50977 41.3174 8.44727C41.2432 8.38477 41.1396 8.3252 41.0068 8.26855C40.876 8.21191 40.71 8.1543 40.5088 8.0957C40.2979 8.0332 40.1074 7.96387 39.9375 7.8877C39.7676 7.80957 39.6221 7.7207 39.501 7.62109C39.3799 7.52148 39.2871 7.40723 39.2227 7.27832C39.1582 7.14941 39.126 7.00195 39.126 6.83594C39.126 6.66992 39.1602 6.5166 39.2285 6.37598C39.2969 6.23535 39.3945 6.11328 39.5215 6.00977C39.6504 5.9043 39.8037 5.82227 39.9814 5.76367C40.1592 5.70508 40.3574 5.67578 40.5762 5.67578C40.8965 5.67578 41.168 5.7373 41.3906 5.86035C41.6152 5.98145 41.7861 6.14062 41.9033 6.33789C42.0205 6.5332 42.0791 6.74219 42.0791 6.96484H41.5166C41.5166 6.80469 41.4824 6.66309 41.4141 6.54004C41.3457 6.41504 41.2422 6.31738 41.1035 6.24707C40.9648 6.1748 40.7891 6.13867 40.5762 6.13867C40.375 6.13867 40.209 6.16895 40.0781 6.22949C39.9473 6.29004 39.8496 6.37207 39.7852 6.47559C39.7227 6.5791 39.6914 6.69727 39.6914 6.83008C39.6914 6.91992 39.71 7.00195 39.7471 7.07617C39.7861 7.14844 39.8457 7.21582 39.9258 7.27832C40.0078 7.34082 40.1113 7.39844 40.2363 7.45117C40.3633 7.50391 40.5146 7.55469 40.6904 7.60352C40.9326 7.67188 41.1416 7.74805 41.3174 7.83203C41.4932 7.91602 41.6377 8.01074 41.751 8.11621C41.8662 8.21973 41.9512 8.33789 42.0059 8.4707C42.0625 8.60156 42.0908 8.75 42.0908 8.91602C42.0908 9.08984 42.0557 9.24707 41.9854 9.3877C41.915 9.52832 41.8145 9.64844 41.6836 9.74805C41.5527 9.84766 41.3955 9.9248 41.2119 9.97949C41.0303 10.0322 40.8271 10.0586 40.6025 10.0586C40.4053 10.0586 40.2109 10.0312 40.0195 9.97656C39.8301 9.92188 39.6572 9.83984 39.501 9.73047C39.3467 9.62109 39.2227 9.48633 39.1289 9.32617C39.0371 9.16406 38.9912 8.97656 38.9912 8.76367H39.5537C39.5537 8.91016 39.582 9.03613 39.6387 9.1416C39.6953 9.24512 39.7725 9.33105 39.8701 9.39941C39.9697 9.46777 40.082 9.51855 40.207 9.55176C40.334 9.58301 40.4658 9.59863 40.6025 9.59863C40.7998 9.59863 40.9668 9.57129 41.1035 9.5166C41.2402 9.46191 41.3438 9.38379 41.4141 9.28223C41.4863 9.18066 41.5225 9.06055 41.5225 8.92188ZM45 9.51074L46.084 10.3691L45.7031 10.7207L44.6367 9.87402L45 9.51074ZM46.0693 7.73242V8.00195C46.0693 8.32227 46.0293 8.60938 45.9492 8.86328C45.8691 9.11719 45.7539 9.33301 45.6035 9.51074C45.4531 9.68848 45.2725 9.82422 45.0615 9.91797C44.8525 10.0117 44.6182 10.0586 44.3584 10.0586C44.1064 10.0586 43.875 10.0117 43.6641 9.91797C43.4551 9.82422 43.2734 9.68848 43.1191 9.51074C42.9668 9.33301 42.8486 9.11719 42.7646 8.86328C42.6807 8.60938 42.6387 8.32227 42.6387 8.00195V7.73242C42.6387 7.41211 42.6797 7.12598 42.7617 6.87402C42.8457 6.62012 42.9639 6.4043 43.1162 6.22656C43.2686 6.04688 43.4492 5.91016 43.6582 5.81641C43.8691 5.72266 44.1006 5.67578 44.3525 5.67578C44.6123 5.67578 44.8477 5.72266 45.0586 5.81641C45.2695 5.91016 45.4502 6.04688 45.6006 6.22656C45.751 6.4043 45.8662 6.62012 45.9463 6.87402C46.0283 7.12598 46.0693 7.41211 46.0693 7.73242ZM45.5098 8.00195V7.72656C45.5098 7.47266 45.4834 7.24805 45.4307 7.05273C45.3799 6.85742 45.3047 6.69336 45.2051 6.56055C45.1055 6.42773 44.9844 6.32715 44.8418 6.25879C44.6992 6.19043 44.5361 6.15625 44.3525 6.15625C44.1787 6.15625 44.0205 6.19043 43.8779 6.25879C43.7373 6.32715 43.6162 6.42773 43.5146 6.56055C43.4131 6.69336 43.335 6.85742 43.2803 7.05273C43.2256 7.24805 43.1982 7.47266 43.1982 7.72656V8.00195C43.1982 8.25781 43.2256 8.48438 43.2803 8.68164C43.335 8.87695 43.4131 9.04199 43.5146 9.17676C43.6182 9.30957 43.7412 9.41016 43.8838 9.47852C44.0264 9.54688 44.1846 9.58105 44.3584 9.58105C44.542 9.58105 44.7051 9.54688 44.8477 9.47852C44.9902 9.41016 45.1104 9.30957 45.208 9.17676C45.3076 9.04199 45.3828 8.87695 45.4336 8.68164C45.4844 8.48438 45.5098 8.25781 45.5098 8.00195ZM49.5293 9.54004V10H47.3965V9.54004H49.5293ZM47.5078 5.73438V10H46.9424V5.73438H47.5078Z" fill="white"/>
<g clip-path="url(#clip0_113_2)">
<path d="M14.6251 8.58336C14.5417 8.37503 14.3751 8.25003 14.1667 8.20836L13.8334 8.25003L13.2501 8.33336C13.7501 7.50003 14.1667 6.54169 14.3751 5.62503C14.7501 4.20836 14.5834 3.54169 14.3334 3.25003C14.0294 2.85543 13.6377 2.53704 13.1893 2.32008C12.7409 2.10312 12.2481 1.99354 11.7501 2.00003C11.1667 2.00003 10.6251 2.12503 10.3751 2.20836L9.5834 2.12503C9.0834 2.12503 8.58339 2.25003 8.20839 2.45836L7.25006 2.20836C6.29173 2.08336 5.50006 2.20836 4.95839 2.58336C4.29173 3.08336 3.95839 3.91669 4.00006 5.08336C4.18686 6.48088 4.58003 7.84294 5.16673 9.12503C5.45839 9.70836 5.75006 10.0417 6.12506 10.125C6.33339 10.2084 6.66673 10.25 7.04173 9.95836L7.25006 10.125L7.62506 10.25C8.08339 10.375 8.54173 10.3334 8.91673 10.2084C8.91781 10.3472 8.91781 10.4861 8.91673 10.625C8.91517 11.0913 8.98544 11.5551 9.12506 12C9.16673 12.1667 9.29173 12.4584 9.50006 12.6667C9.75006 12.9167 10.0417 13 10.3334 13L10.7084 12.9584C11.1251 12.875 11.5834 12.7084 11.9167 12.25C12.2501 11.7917 12.3751 11.125 12.4167 10.0417V9.95836L12.4584 9.87503L12.5001 9.91669H12.5417C12.9584 9.91669 13.4584 9.83336 13.7917 9.66669C14.0001 9.58336 14.7917 9.16669 14.6251 8.58336Z" fill="black"/>
<path d="M13.9166 8.70832C12.6666 8.95832 12.5832 8.54166 12.5832 8.54166C13.9166 6.58332 14.4582 4.12499 13.9582 3.54166C12.6666 1.87499 10.4582 2.66666 10.4166 2.66666L9.58324 2.58332C8.99991 2.58332 8.58324 2.74999 8.24991 2.99999C8.24991 2.99999 4.29158 1.33332 4.45824 5.04166C4.49991 5.83332 5.62491 11 6.91658 9.45832L7.83324 8.37499C8.08324 8.54166 8.33324 8.62499 8.62491 8.58332H8.66658V8.79166C8.33324 9.16666 8.41658 9.20832 7.74991 9.37499C7.08324 9.49999 7.45824 9.74999 7.74991 9.83332C8.04158 9.91666 8.79158 9.99999 9.24991 9.33332V9.41666C9.37491 9.49999 9.45824 10.0833 9.45824 10.625C9.41658 11.125 9.41658 11.5 9.54158 11.75C9.62491 12.0417 9.74991 12.6667 10.6249 12.5C11.3332 12.3333 11.7499 11.9167 11.7916 11.25C11.8332 10.75 11.9166 10.8333 11.9166 10.4167L11.9582 10.2083C12.0416 9.54166 11.9999 9.33332 12.4582 9.41666L12.5416 9.45832C12.8749 9.45832 13.3332 9.37499 13.5832 9.24999C14.1249 8.99999 14.4582 8.58332 13.9166 8.70832Z" fill="#336791"/>
<path d="M8.50016 5.4167H8.25016L8.2085 5.50003L8.25016 5.62503C8.29183 5.70836 8.37516 5.75003 8.4585 5.75003H8.50016C8.62516 5.75003 8.75016 5.6667 8.75016 5.58336C8.79183 5.50003 8.62516 5.4167 8.50016 5.4167ZM12.2085 5.4167C12.2085 5.33336 12.0418 5.2917 11.9168 5.33336C11.7918 5.33336 11.6668 5.37503 11.6668 5.45836C11.7085 5.5417 11.7918 5.62503 11.9168 5.62503H11.9585L12.1252 5.5417L12.2085 5.4167Z" fill="white"/>
<path d="M14.3333 8.66668C14.2917 8.54168 14.125 8.45835 13.875 8.54168C13.125 8.66668 12.875 8.58335 12.75 8.50001C13.3333 7.62501 13.8333 6.54168 14.0833 5.54168C14.2083 5.08335 14.2917 4.62501 14.2917 4.29168C14.2917 3.87501 14.2083 3.58335 14.0833 3.41668C13.8031 3.05641 13.4422 2.76693 13.0297 2.57154C12.6172 2.37614 12.1646 2.28029 11.7083 2.29168C11.0417 2.29168 10.4583 2.45835 10.3333 2.54168C10.125 2.45835 9.83334 2.41668 9.58334 2.41668C9.04167 2.41668 8.62501 2.54168 8.25001 2.79168C8.08334 2.70835 7.66667 2.58335 7.16667 2.50001C6.29167 2.37501 5.62501 2.45835 5.12501 2.83335C4.54167 3.25001 4.25001 4.00001 4.33334 5.04168C4.33334 5.37501 4.54167 6.50001 4.87501 7.54168C5.29167 8.91668 5.75001 9.66668 6.20834 9.83335L6.41667 9.87501C6.58334 9.87501 6.79167 9.79168 7.00001 9.50001L7.87501 8.58335C8.04167 8.66668 8.25001 8.70835 8.45834 8.70835V8.75001L8.37501 8.87501C8.20834 9.08335 8.16667 9.08335 7.70834 9.20835C7.58334 9.20835 7.20834 9.29168 7.20834 9.54168C7.20834 9.83335 7.62501 9.95835 7.66667 9.95835L8.16667 10C8.54167 10 8.87501 9.87501 9.16667 9.66668C9.12501 10.625 9.16667 11.5833 9.29167 11.875C9.41667 12.125 9.62501 12.7083 10.375 12.7083L10.75 12.6667C11.5 12.5 11.8333 12.1667 11.9583 11.4167L12.2083 9.54168L12.6667 9.58335C13 9.58335 13.375 9.50001 13.625 9.37501C13.9167 9.25001 14.4167 8.95835 14.3333 8.66668ZM12.5 5.20835L12.4583 5.62501L12.375 6.12501L12.4167 6.70835C12.4583 7.08335 12.5417 7.50001 12.3333 7.87501L12.25 7.70835L12.125 7.45835C11.8333 6.95835 11.2083 5.83335 11.5417 5.37501C11.625 5.25001 11.875 5.12501 12.5 5.20835ZM11.75 2.62501C12.625 2.62501 13.3333 2.95835 13.8333 3.58335C14.2083 4.08335 13.7917 6.29168 12.5833 8.20835L12.5417 8.16668C12.8333 7.62501 12.7917 7.12501 12.75 6.66668L12.7083 6.12501L12.75 5.66668C12.7887 5.4467 12.8026 5.22309 12.7917 5.00001C12.7917 4.79168 12.5417 4.16668 12.0417 3.58335C11.7917 3.29168 11.375 2.91668 10.875 2.70835L11.75 2.62501ZM6.79167 9.33335C6.54167 9.62501 6.37501 9.58335 6.29167 9.54168C5.95834 9.41668 5.50001 8.66668 5.16667 7.41668C4.83334 6.37501 4.62501 5.33335 4.62501 5.04168C4.58334 4.08335 4.79167 3.41668 5.29167 3.08335C6.12501 2.50001 7.45834 2.83335 7.95834 3.00001V3.04168C7.08334 3.91668 7.08334 5.41668 7.08334 5.54168V5.66668C7.12501 5.95835 7.16667 6.41668 7.08334 6.95835C7.04286 7.21742 7.06735 7.48249 7.15462 7.72976C7.24189 7.97702 7.38921 8.19875 7.58334 8.37501L6.79167 9.33335ZM7.70834 8.08335C7.45834 7.79168 7.33334 7.41668 7.37501 7.00001C7.45834 6.41668 7.41667 5.91668 7.41667 5.66668V5.58335C7.54167 5.45835 8.12501 5.12501 8.54167 5.25001C8.75001 5.29168 8.87501 5.41668 8.91667 5.62501C9.16667 6.79168 8.95834 7.29168 8.75001 7.70835L8.66667 7.91668L8.62501 8.00001L8.50001 8.41668C8.20834 8.41668 7.91667 8.29168 7.70834 8.08335ZM7.75001 9.66668L7.54167 9.58335L7.79167 9.50001C8.33334 9.37501 8.41667 9.29168 8.58334 9.08335L8.75001 8.87501C8.87501 8.75001 8.91667 8.79168 9.00001 8.83335C9.04167 8.83335 9.12501 8.91668 9.16667 9.04168L9.12501 9.20835C8.75001 9.75001 8.16667 9.75001 7.75001 9.66668ZM10.6667 12.375C10 12.5 9.75001 12.1667 9.58334 11.75C9.43496 10.8273 9.39302 9.89062 9.45834 8.95835C9.37501 8.75001 9.25001 8.58335 9.12501 8.54168C9.04167 8.50001 8.91667 8.45835 8.79167 8.50001L8.91667 8.08335L8.95834 8.04168L9.04167 7.83335C9.25001 7.41668 9.50001 6.83335 9.20834 5.58335C9.12501 5.08335 8.75001 4.87501 8.25001 4.91668C7.95569 4.95791 7.67246 5.05704 7.41667 5.20835C7.45834 4.70835 7.62501 3.83335 8.16667 3.25001C8.54167 2.91668 9.00001 2.70835 9.58334 2.75001C10.7083 2.75001 11.4167 3.33335 11.8333 3.83335C12.1667 4.25001 12.375 4.66668 12.4583 4.87501C11.875 4.83335 11.5 4.91668 11.2917 5.20835C10.875 5.83335 11.5417 7.04168 11.8333 7.58335L11.9583 7.83335L12.2917 8.37501L12.375 8.45835C12.2083 8.54168 11.9167 8.62501 11.9167 9.20835L11.6667 11.3333C11.5417 12 11.3333 12.2083 10.6667 12.375ZM13.5 9.12501C13.3333 9.20835 13.0417 9.25001 12.75 9.25001C12.4167 9.29168 12.2917 9.25001 12.25 9.20835C12.2083 8.83335 12.375 8.79168 12.5 8.75001H12.5833L12.625 8.79168C12.875 8.95835 13.2917 8.95835 13.9167 8.83335H13.9583L13.5 9.12501Z" fill="white"/>
</g>
<defs>
<clipPath id="clip0_113_2">
<rect width="10.6667" height="11" fill="white" transform="translate(4 2)"/>
</clipPath>
</defs>
</svg>
