<svg width="47" height="15" viewBox="0 0 47 15" fill="none" xmlns="http://www.w3.org/2000/svg">
<rect width="47" height="15" rx="7.5" fill="#00117D"/>
<path d="M22.0742 6.1123L20.6621 10H20.085L21.7109 5.73438H22.083L22.0742 6.1123ZM23.2578 10L21.8428 6.1123L21.834 5.73438H22.2061L23.8379 10H23.2578ZM23.1846 8.4209V8.88379H20.7881V8.4209H23.1846ZM24.8691 7.50684V10H24.3271V6.83008H24.8398L24.8691 7.50684ZM24.7402 8.29492L24.5146 8.28613C24.5166 8.06934 24.5488 7.86914 24.6113 7.68555C24.6738 7.5 24.7617 7.33887 24.875 7.20215C24.9883 7.06543 25.123 6.95996 25.2793 6.88574C25.4375 6.80957 25.6123 6.77148 25.8037 6.77148C25.96 6.77148 26.1006 6.79297 26.2256 6.83594C26.3506 6.87695 26.457 6.94336 26.5449 7.03516C26.6348 7.12695 26.7031 7.24609 26.75 7.39258C26.7969 7.53711 26.8203 7.71387 26.8203 7.92285V10H26.2754V7.91699C26.2754 7.75098 26.251 7.61816 26.2021 7.51855C26.1533 7.41699 26.082 7.34375 25.9883 7.29883C25.8945 7.25195 25.7793 7.22852 25.6426 7.22852C25.5078 7.22852 25.3848 7.25684 25.2734 7.31348C25.1641 7.37012 25.0693 7.44824 24.9893 7.54785C24.9111 7.64746 24.8496 7.76172 24.8047 7.89062C24.7617 8.01758 24.7402 8.15234 24.7402 8.29492ZM29.6973 6.83008H30.1895V9.93262C30.1895 10.2119 30.1328 10.4502 30.0195 10.6475C29.9062 10.8447 29.748 10.9941 29.5449 11.0957C29.3438 11.1992 29.1113 11.251 28.8477 11.251C28.7383 11.251 28.6094 11.2334 28.4609 11.1982C28.3145 11.165 28.1699 11.1074 28.0273 11.0254C27.8867 10.9453 27.7686 10.8369 27.6729 10.7002L27.957 10.3779C28.0898 10.5381 28.2285 10.6494 28.373 10.7119C28.5195 10.7744 28.6641 10.8057 28.8066 10.8057C28.9785 10.8057 29.127 10.7734 29.252 10.709C29.377 10.6445 29.4736 10.5488 29.542 10.4219C29.6123 10.2969 29.6475 10.1426 29.6475 9.95898V7.52734L29.6973 6.83008ZM27.5146 8.4502V8.38867C27.5146 8.14648 27.543 7.92676 27.5996 7.72949C27.6582 7.53027 27.7412 7.35938 27.8486 7.2168C27.958 7.07422 28.0898 6.96484 28.2441 6.88867C28.3984 6.81055 28.5723 6.77148 28.7656 6.77148C28.9648 6.77148 29.1387 6.80664 29.2871 6.87695C29.4375 6.94531 29.5645 7.0459 29.668 7.17871C29.7734 7.30957 29.8564 7.46777 29.917 7.65332C29.9775 7.83887 30.0195 8.04883 30.043 8.2832V8.55273C30.0215 8.78516 29.9795 8.99414 29.917 9.17969C29.8564 9.36523 29.7734 9.52344 29.668 9.6543C29.5645 9.78516 29.4375 9.88574 29.2871 9.95605C29.1367 10.0244 28.9609 10.0586 28.7598 10.0586C28.5703 10.0586 28.3984 10.0186 28.2441 9.93848C28.0918 9.8584 27.9609 9.74609 27.8516 9.60156C27.7422 9.45703 27.6582 9.28711 27.5996 9.0918C27.543 8.89453 27.5146 8.68066 27.5146 8.4502ZM28.0566 8.38867V8.4502C28.0566 8.6084 28.0723 8.75684 28.1035 8.89551C28.1367 9.03418 28.1865 9.15625 28.2529 9.26172C28.3213 9.36719 28.4082 9.4502 28.5137 9.51074C28.6191 9.56934 28.7451 9.59863 28.8916 9.59863C29.0713 9.59863 29.2197 9.56055 29.3369 9.48438C29.4541 9.4082 29.5469 9.30762 29.6152 9.18262C29.6855 9.05762 29.7402 8.92188 29.7793 8.77539V8.06934C29.7578 7.96191 29.7246 7.8584 29.6797 7.75879C29.6367 7.65723 29.5801 7.56738 29.5098 7.48926C29.4414 7.40918 29.3564 7.3457 29.2549 7.29883C29.1533 7.25195 29.0342 7.22852 28.8975 7.22852C28.749 7.22852 28.6211 7.25977 28.5137 7.32227C28.4082 7.38281 28.3213 7.4668 28.2529 7.57422C28.1865 7.67969 28.1367 7.80273 28.1035 7.94336C28.0723 8.08203 28.0566 8.23047 28.0566 8.38867ZM32.9521 9.26758V6.83008H33.4971V10H32.9785L32.9521 9.26758ZM33.0547 8.59961L33.2803 8.59375C33.2803 8.80469 33.2578 9 33.2129 9.17969C33.1699 9.35742 33.0996 9.51172 33.002 9.64258C32.9043 9.77344 32.7764 9.87598 32.6182 9.9502C32.46 10.0225 32.2676 10.0586 32.041 10.0586C31.8867 10.0586 31.7451 10.0361 31.6162 9.99121C31.4893 9.94629 31.3799 9.87695 31.2881 9.7832C31.1963 9.68945 31.125 9.56738 31.0742 9.41699C31.0254 9.2666 31.001 9.08594 31.001 8.875V6.83008H31.543V8.88086C31.543 9.02344 31.5586 9.1416 31.5898 9.23535C31.623 9.32715 31.667 9.40039 31.7217 9.45508C31.7783 9.50781 31.8408 9.54492 31.9092 9.56641C31.9795 9.58789 32.0518 9.59863 32.126 9.59863C32.3564 9.59863 32.5391 9.55469 32.6738 9.4668C32.8086 9.37695 32.9053 9.25684 32.9639 9.10645C33.0244 8.9541 33.0547 8.78516 33.0547 8.59961ZM34.9121 5.5V10H34.3672V5.5H34.9121ZM37.6514 9.45801V7.82617C37.6514 7.70117 37.626 7.59277 37.5752 7.50098C37.5264 7.40723 37.4521 7.33496 37.3525 7.28418C37.2529 7.2334 37.1299 7.20801 36.9834 7.20801C36.8467 7.20801 36.7266 7.23145 36.623 7.27832C36.5215 7.3252 36.4414 7.38672 36.3828 7.46289C36.3262 7.53906 36.2979 7.62109 36.2979 7.70898H35.7559C35.7559 7.5957 35.7852 7.4834 35.8438 7.37207C35.9023 7.26074 35.9863 7.16016 36.0957 7.07031C36.207 6.97852 36.3398 6.90625 36.4941 6.85352C36.6504 6.79883 36.8242 6.77148 37.0156 6.77148C37.2461 6.77148 37.4492 6.81055 37.625 6.88867C37.8027 6.9668 37.9414 7.08496 38.041 7.24316C38.1426 7.39941 38.1934 7.5957 38.1934 7.83203V9.30859C38.1934 9.41406 38.2021 9.52637 38.2197 9.64551C38.2393 9.76465 38.2676 9.86719 38.3047 9.95312V10H37.7393C37.7119 9.9375 37.6904 9.85449 37.6748 9.75098C37.6592 9.64551 37.6514 9.54785 37.6514 9.45801ZM37.7451 8.07812L37.751 8.45898H37.2031C37.0488 8.45898 36.9111 8.47168 36.79 8.49707C36.6689 8.52051 36.5674 8.55664 36.4854 8.60547C36.4033 8.6543 36.3408 8.71582 36.2979 8.79004C36.2549 8.8623 36.2334 8.94727 36.2334 9.04492C36.2334 9.14453 36.2559 9.23535 36.3008 9.31738C36.3457 9.39941 36.4131 9.46484 36.5029 9.51367C36.5947 9.56055 36.707 9.58398 36.8398 9.58398C37.0059 9.58398 37.1523 9.54883 37.2793 9.47852C37.4062 9.4082 37.5068 9.32227 37.5811 9.2207C37.6572 9.11914 37.6982 9.02051 37.7041 8.9248L37.9355 9.18555C37.9219 9.26758 37.8848 9.3584 37.8242 9.45801C37.7637 9.55762 37.6826 9.65332 37.5811 9.74512C37.4814 9.83496 37.3623 9.91016 37.2236 9.9707C37.0869 10.0293 36.9326 10.0586 36.7607 10.0586C36.5459 10.0586 36.3574 10.0166 36.1953 9.93262C36.0352 9.84863 35.9102 9.73633 35.8203 9.5957C35.7324 9.45312 35.6885 9.29395 35.6885 9.11816C35.6885 8.94824 35.7217 8.79883 35.7881 8.66992C35.8545 8.53906 35.9502 8.43066 36.0752 8.34473C36.2002 8.25684 36.3506 8.19043 36.5264 8.14551C36.7021 8.10059 36.8984 8.07812 37.1152 8.07812H37.7451ZM39.5879 7.32812V10H39.0459V6.83008H39.5732L39.5879 7.32812ZM40.5781 6.8125L40.5752 7.31641C40.5303 7.30664 40.4873 7.30078 40.4463 7.29883C40.4072 7.29492 40.3623 7.29297 40.3115 7.29297C40.1865 7.29297 40.0762 7.3125 39.9805 7.35156C39.8848 7.39062 39.8037 7.44531 39.7373 7.51562C39.6709 7.58594 39.6182 7.66992 39.5791 7.76758C39.542 7.86328 39.5176 7.96875 39.5059 8.08398L39.3535 8.17188C39.3535 7.98047 39.3721 7.80078 39.4092 7.63281C39.4482 7.46484 39.5078 7.31641 39.5879 7.1875C39.668 7.05664 39.7695 6.95508 39.8926 6.88281C40.0176 6.80859 40.166 6.77148 40.3379 6.77148C40.377 6.77148 40.4219 6.77637 40.4727 6.78613C40.5234 6.79395 40.5586 6.80273 40.5781 6.8125Z" fill="white"/>
<g clip-path="url(#clip0_105_370)">
<mask id="mask0_105_370" style="mask-type:luminance" maskUnits="userSpaceOnUse" x="6" y="2" width="10" height="11">
<path d="M6 2H16V12.5785H6V2Z" fill="white"/>
</mask>
<g mask="url(#mask0_105_370)">
<mask id="mask1_105_370" style="mask-type:luminance" maskUnits="userSpaceOnUse" x="6" y="2" width="10" height="11">
<path d="M6 2H16V12.5785H6V2Z" fill="white"/>
</mask>
<g mask="url(#mask1_105_370)">
<path d="M15.9587 3.77686L15.5868 9.39669L12.157 2L15.9587 3.77686ZM13.562 11.0496L11 12.5372L8.39669 11.0496L8.89256 9.7686H13.0661L13.562 11.0496ZM11 4.80992L12.3223 8.1157H9.63636L11 4.80992ZM6.3719 9.39669L6 3.77686L9.80165 2L6.3719 9.39669Z" fill="url(#paint0_linear_105_370)"/>
<path d="M15.9587 3.77686L15.5868 9.39669L12.157 2L15.9587 3.77686ZM13.562 11.0496L11 12.5372L8.39669 11.0496L8.89256 9.7686H13.0661L13.562 11.0496ZM11 4.80992L12.3223 8.1157H9.63636L11 4.80992ZM6.3719 9.39669L6 3.77686L9.80165 2L6.3719 9.39669Z" fill="url(#paint1_linear_105_370)"/>
</g>
</g>
</g>
<defs>
<linearGradient id="paint0_linear_105_370" x1="8.19835" y1="11.5826" x2="16.124" y2="7.81405" gradientUnits="userSpaceOnUse">
<stop stop-color="#E40035"/>
<stop offset="0.2" stop-color="#F60A48"/>
<stop offset="0.4" stop-color="#F20755"/>
<stop offset="0.5" stop-color="#DC087D"/>
<stop offset="0.7" stop-color="#9717E7"/>
<stop offset="1" stop-color="#6C00F5"/>
</linearGradient>
<linearGradient id="paint1_linear_105_370" x1="7.83884" y1="3.26859" x2="13.0248" y2="9.19008" gradientUnits="userSpaceOnUse">
<stop stop-color="#FF31D9"/>
<stop offset="1" stop-color="#FF5BE1" stop-opacity="0"/>
</linearGradient>
<clipPath id="clip0_105_370">
<rect width="10" height="10.5785" fill="white" transform="translate(6 2)"/>
</clipPath>
</defs>
</svg>
