<svg width="57" height="15" viewBox="0 0 57 15" fill="none" xmlns="http://www.w3.org/2000/svg">
<rect width="57" height="15" rx="7.5" fill="#2B261A"/>
<path d="M23.2852 8.75488V5.73438H23.8477V8.75488C23.8477 9.03613 23.79 9.27344 23.6748 9.4668C23.5596 9.66016 23.4004 9.80762 23.1973 9.90918C22.9961 10.0088 22.7646 10.0586 22.5029 10.0586C22.2412 10.0586 22.0088 10.0137 21.8057 9.92383C21.6025 9.83398 21.4434 9.69727 21.3281 9.51367C21.2129 9.33008 21.1553 9.09863 21.1553 8.81934H21.7207C21.7207 8.99902 21.7539 9.14648 21.8203 9.26172C21.8867 9.37695 21.9785 9.46191 22.0957 9.5166C22.2148 9.57129 22.3506 9.59863 22.5029 9.59863C22.6514 9.59863 22.7842 9.56738 22.9014 9.50488C23.0205 9.44043 23.1143 9.3457 23.1826 9.2207C23.251 9.09375 23.2852 8.93848 23.2852 8.75488ZM26.5928 9.45801V7.82617C26.5928 7.70117 26.5674 7.59277 26.5166 7.50098C26.4678 7.40723 26.3936 7.33496 26.2939 7.28418C26.1943 7.2334 26.0713 7.20801 25.9248 7.20801C25.7881 7.20801 25.668 7.23145 25.5645 7.27832C25.4629 7.3252 25.3828 7.38672 25.3242 7.46289C25.2676 7.53906 25.2393 7.62109 25.2393 7.70898H24.6973C24.6973 7.5957 24.7266 7.4834 24.7852 7.37207C24.8438 7.26074 24.9277 7.16016 25.0371 7.07031C25.1484 6.97852 25.2812 6.90625 25.4355 6.85352C25.5918 6.79883 25.7656 6.77148 25.957 6.77148C26.1875 6.77148 26.3906 6.81055 26.5664 6.88867C26.7441 6.9668 26.8828 7.08496 26.9824 7.24316C27.084 7.39941 27.1348 7.5957 27.1348 7.83203V9.30859C27.1348 9.41406 27.1436 9.52637 27.1611 9.64551C27.1807 9.76465 27.209 9.86719 27.2461 9.95312V10H26.6807C26.6533 9.9375 26.6318 9.85449 26.6162 9.75098C26.6006 9.64551 26.5928 9.54785 26.5928 9.45801ZM26.6865 8.07812L26.6924 8.45898H26.1445C25.9902 8.45898 25.8525 8.47168 25.7314 8.49707C25.6104 8.52051 25.5088 8.55664 25.4268 8.60547C25.3447 8.6543 25.2822 8.71582 25.2393 8.79004C25.1963 8.8623 25.1748 8.94727 25.1748 9.04492C25.1748 9.14453 25.1973 9.23535 25.2422 9.31738C25.2871 9.39941 25.3545 9.46484 25.4443 9.51367C25.5361 9.56055 25.6484 9.58398 25.7812 9.58398C25.9473 9.58398 26.0938 9.54883 26.2207 9.47852C26.3477 9.4082 26.4482 9.32227 26.5225 9.2207C26.5986 9.11914 26.6396 9.02051 26.6455 8.9248L26.877 9.18555C26.8633 9.26758 26.8262 9.3584 26.7656 9.45801C26.7051 9.55762 26.624 9.65332 26.5225 9.74512C26.4229 9.83496 26.3037 9.91016 26.165 9.9707C26.0283 10.0293 25.874 10.0586 25.7021 10.0586C25.4873 10.0586 25.2988 10.0166 25.1367 9.93262C24.9766 9.84863 24.8516 9.73633 24.7617 9.5957C24.6738 9.45312 24.6299 9.29395 24.6299 9.11816C24.6299 8.94824 24.6631 8.79883 24.7295 8.66992C24.7959 8.53906 24.8916 8.43066 25.0166 8.34473C25.1416 8.25684 25.292 8.19043 25.4678 8.14551C25.6436 8.10059 25.8398 8.07812 26.0566 8.07812H26.6865ZM28.9043 9.51074L29.7715 6.83008H30.3252L29.1855 10H28.8223L28.9043 9.51074ZM28.1807 6.83008L29.0742 9.52539L29.1357 10H28.7725L27.624 6.83008H28.1807ZM32.6689 9.45801V7.82617C32.6689 7.70117 32.6436 7.59277 32.5928 7.50098C32.5439 7.40723 32.4697 7.33496 32.3701 7.28418C32.2705 7.2334 32.1475 7.20801 32.001 7.20801C31.8643 7.20801 31.7441 7.23145 31.6406 7.27832C31.5391 7.3252 31.459 7.38672 31.4004 7.46289C31.3438 7.53906 31.3154 7.62109 31.3154 7.70898H30.7734C30.7734 7.5957 30.8027 7.4834 30.8613 7.37207C30.9199 7.26074 31.0039 7.16016 31.1133 7.07031C31.2246 6.97852 31.3574 6.90625 31.5117 6.85352C31.668 6.79883 31.8418 6.77148 32.0332 6.77148C32.2637 6.77148 32.4668 6.81055 32.6426 6.88867C32.8203 6.9668 32.959 7.08496 33.0586 7.24316C33.1602 7.39941 33.2109 7.5957 33.2109 7.83203V9.30859C33.2109 9.41406 33.2197 9.52637 33.2373 9.64551C33.2568 9.76465 33.2852 9.86719 33.3223 9.95312V10H32.7568C32.7295 9.9375 32.708 9.85449 32.6924 9.75098C32.6768 9.64551 32.6689 9.54785 32.6689 9.45801ZM32.7627 8.07812L32.7686 8.45898H32.2207C32.0664 8.45898 31.9287 8.47168 31.8076 8.49707C31.6865 8.52051 31.585 8.55664 31.5029 8.60547C31.4209 8.6543 31.3584 8.71582 31.3154 8.79004C31.2725 8.8623 31.251 8.94727 31.251 9.04492C31.251 9.14453 31.2734 9.23535 31.3184 9.31738C31.3633 9.39941 31.4307 9.46484 31.5205 9.51367C31.6123 9.56055 31.7246 9.58398 31.8574 9.58398C32.0234 9.58398 32.1699 9.54883 32.2969 9.47852C32.4238 9.4082 32.5244 9.32227 32.5986 9.2207C32.6748 9.11914 32.7158 9.02051 32.7217 8.9248L32.9531 9.18555C32.9395 9.26758 32.9023 9.3584 32.8418 9.45801C32.7812 9.55762 32.7002 9.65332 32.5986 9.74512C32.499 9.83496 32.3799 9.91016 32.2412 9.9707C32.1045 10.0293 31.9502 10.0586 31.7783 10.0586C31.5635 10.0586 31.375 10.0166 31.2129 9.93262C31.0527 9.84863 30.9277 9.73633 30.8379 9.5957C30.75 9.45312 30.7061 9.29395 30.7061 9.11816C30.7061 8.94824 30.7393 8.79883 30.8057 8.66992C30.8721 8.53906 30.9678 8.43066 31.0928 8.34473C31.2178 8.25684 31.3682 8.19043 31.5439 8.14551C31.7197 8.10059 31.916 8.07812 32.1328 8.07812H32.7627ZM35.9092 9.15918C35.9092 9.08105 35.8916 9.00879 35.8564 8.94238C35.8232 8.87402 35.7539 8.8125 35.6484 8.75781C35.5449 8.70117 35.3887 8.65234 35.1797 8.61133C35.0039 8.57422 34.8447 8.53027 34.7021 8.47949C34.5615 8.42871 34.4414 8.36719 34.3418 8.29492C34.2441 8.22266 34.1689 8.1377 34.1162 8.04004C34.0635 7.94238 34.0371 7.82812 34.0371 7.69727C34.0371 7.57227 34.0645 7.4541 34.1191 7.34277C34.1758 7.23145 34.2549 7.13281 34.3564 7.04688C34.46 6.96094 34.584 6.89355 34.7285 6.84473C34.873 6.7959 35.0342 6.77148 35.2119 6.77148C35.4658 6.77148 35.6826 6.81641 35.8623 6.90625C36.042 6.99609 36.1797 7.11621 36.2754 7.2666C36.3711 7.41504 36.4189 7.58008 36.4189 7.76172H35.877C35.877 7.67383 35.8506 7.58887 35.7979 7.50684C35.7471 7.42285 35.6719 7.35352 35.5723 7.29883C35.4746 7.24414 35.3545 7.2168 35.2119 7.2168C35.0615 7.2168 34.9395 7.24023 34.8457 7.28711C34.7539 7.33203 34.6865 7.38965 34.6436 7.45996C34.6025 7.53027 34.582 7.60449 34.582 7.68262C34.582 7.74121 34.5918 7.79395 34.6113 7.84082C34.6328 7.88574 34.6699 7.92773 34.7227 7.9668C34.7754 8.00391 34.8496 8.03906 34.9453 8.07227C35.041 8.10547 35.1631 8.13867 35.3115 8.17188C35.5713 8.23047 35.7852 8.30078 35.9531 8.38281C36.1211 8.46484 36.2461 8.56543 36.3281 8.68457C36.4102 8.80371 36.4512 8.94824 36.4512 9.11816C36.4512 9.25684 36.4219 9.38379 36.3633 9.49902C36.3066 9.61426 36.2236 9.71387 36.1143 9.79785C36.0068 9.87988 35.8779 9.94434 35.7275 9.99121C35.5791 10.0361 35.4121 10.0586 35.2266 10.0586C34.9473 10.0586 34.7109 10.0088 34.5176 9.90918C34.3242 9.80957 34.1777 9.68066 34.0781 9.52246C33.9785 9.36426 33.9287 9.19727 33.9287 9.02148H34.4736C34.4814 9.16992 34.5244 9.28809 34.6025 9.37598C34.6807 9.46191 34.7764 9.52344 34.8896 9.56055C35.0029 9.5957 35.1152 9.61328 35.2266 9.61328C35.375 9.61328 35.499 9.59375 35.5986 9.55469C35.7002 9.51562 35.7773 9.46191 35.8301 9.39355C35.8828 9.3252 35.9092 9.24707 35.9092 9.15918ZM38.4316 9.61328C38.5605 9.61328 38.6797 9.58691 38.7891 9.53418C38.8984 9.48145 38.9883 9.40918 39.0586 9.31738C39.1289 9.22363 39.1689 9.11719 39.1787 8.99805H39.6943C39.6846 9.18555 39.6211 9.36035 39.5039 9.52246C39.3887 9.68262 39.2373 9.8125 39.0498 9.91211C38.8623 10.0098 38.6562 10.0586 38.4316 10.0586C38.1934 10.0586 37.9854 10.0166 37.8076 9.93262C37.6318 9.84863 37.4854 9.7334 37.3682 9.58691C37.2529 9.44043 37.166 9.27246 37.1074 9.08301C37.0508 8.8916 37.0225 8.68945 37.0225 8.47656V8.35352C37.0225 8.14062 37.0508 7.93945 37.1074 7.75C37.166 7.55859 37.2529 7.38965 37.3682 7.24316C37.4854 7.09668 37.6318 6.98145 37.8076 6.89746C37.9854 6.81348 38.1934 6.77148 38.4316 6.77148C38.6797 6.77148 38.8965 6.82227 39.082 6.92383C39.2676 7.02344 39.4131 7.16016 39.5186 7.33398C39.626 7.50586 39.6846 7.70117 39.6943 7.91992H39.1787C39.1689 7.78906 39.1318 7.6709 39.0674 7.56543C39.0049 7.45996 38.9189 7.37598 38.8096 7.31348C38.7021 7.24902 38.5762 7.2168 38.4316 7.2168C38.2656 7.2168 38.126 7.25 38.0127 7.31641C37.9014 7.38086 37.8125 7.46875 37.7461 7.58008C37.6816 7.68945 37.6348 7.81152 37.6055 7.94629C37.5781 8.0791 37.5645 8.21484 37.5645 8.35352V8.47656C37.5645 8.61523 37.5781 8.75195 37.6055 8.88672C37.6328 9.02148 37.6787 9.14355 37.7432 9.25293C37.8096 9.3623 37.8984 9.4502 38.0098 9.5166C38.123 9.58105 38.2637 9.61328 38.4316 9.61328ZM40.8457 7.32812V10H40.3037V6.83008H40.8311L40.8457 7.32812ZM41.8359 6.8125L41.833 7.31641C41.7881 7.30664 41.7451 7.30078 41.7041 7.29883C41.665 7.29492 41.6201 7.29297 41.5693 7.29297C41.4443 7.29297 41.334 7.3125 41.2383 7.35156C41.1426 7.39062 41.0615 7.44531 40.9951 7.51562C40.9287 7.58594 40.876 7.66992 40.8369 7.76758C40.7998 7.86328 40.7754 7.96875 40.7637 8.08398L40.6113 8.17188C40.6113 7.98047 40.6299 7.80078 40.667 7.63281C40.7061 7.46484 40.7656 7.31641 40.8457 7.1875C40.9258 7.05664 41.0273 6.95508 41.1504 6.88281C41.2754 6.80859 41.4238 6.77148 41.5957 6.77148C41.6348 6.77148 41.6797 6.77637 41.7305 6.78613C41.7812 6.79395 41.8164 6.80273 41.8359 6.8125ZM42.9258 6.83008V10H42.3809V6.83008H42.9258ZM42.3398 5.98926C42.3398 5.90137 42.3662 5.82715 42.4189 5.7666C42.4736 5.70605 42.5537 5.67578 42.6592 5.67578C42.7627 5.67578 42.8418 5.70605 42.8965 5.7666C42.9531 5.82715 42.9814 5.90137 42.9814 5.98926C42.9814 6.07324 42.9531 6.14551 42.8965 6.20605C42.8418 6.26465 42.7627 6.29395 42.6592 6.29395C42.5537 6.29395 42.4736 6.26465 42.4189 6.20605C42.3662 6.14551 42.3398 6.07324 42.3398 5.98926ZM44.3379 7.43945V11.2188H43.793V6.83008H44.291L44.3379 7.43945ZM46.4736 8.38867V8.4502C46.4736 8.68066 46.4463 8.89453 46.3916 9.0918C46.3369 9.28711 46.2568 9.45703 46.1514 9.60156C46.0479 9.74609 45.9199 9.8584 45.7676 9.93848C45.6152 10.0186 45.4404 10.0586 45.2432 10.0586C45.042 10.0586 44.8643 10.0254 44.71 9.95898C44.5557 9.89258 44.4248 9.7959 44.3174 9.66895C44.21 9.54199 44.124 9.38965 44.0596 9.21191C43.9971 9.03418 43.9541 8.83398 43.9307 8.61133V8.2832C43.9541 8.04883 43.998 7.83887 44.0625 7.65332C44.127 7.46777 44.2119 7.30957 44.3174 7.17871C44.4248 7.0459 44.5547 6.94531 44.707 6.87695C44.8594 6.80664 45.0352 6.77148 45.2344 6.77148C45.4336 6.77148 45.6104 6.81055 45.7646 6.88867C45.9189 6.96484 46.0488 7.07422 46.1543 7.2168C46.2598 7.35938 46.3389 7.53027 46.3916 7.72949C46.4463 7.92676 46.4736 8.14648 46.4736 8.38867ZM45.9287 8.4502V8.38867C45.9287 8.23047 45.9121 8.08203 45.8789 7.94336C45.8457 7.80273 45.7939 7.67969 45.7236 7.57422C45.6553 7.4668 45.5674 7.38281 45.46 7.32227C45.3525 7.25977 45.2246 7.22852 45.0762 7.22852C44.9395 7.22852 44.8203 7.25195 44.7188 7.29883C44.6191 7.3457 44.5342 7.40918 44.4639 7.48926C44.3936 7.56738 44.3359 7.65723 44.291 7.75879C44.248 7.8584 44.2158 7.96191 44.1943 8.06934V8.82812C44.2334 8.96484 44.2881 9.09375 44.3584 9.21484C44.4287 9.33398 44.5225 9.43066 44.6396 9.50488C44.7568 9.57715 44.9043 9.61328 45.082 9.61328C45.2285 9.61328 45.3545 9.58301 45.46 9.52246C45.5674 9.45996 45.6553 9.375 45.7236 9.26758C45.7939 9.16016 45.8457 9.03711 45.8789 8.89844C45.9121 8.75781 45.9287 8.6084 45.9287 8.4502ZM48.4922 6.83008V7.24609H46.7783V6.83008H48.4922ZM47.3584 6.05957H47.9004V9.21484C47.9004 9.32227 47.917 9.40332 47.9502 9.45801C47.9834 9.5127 48.0264 9.54883 48.0791 9.56641C48.1318 9.58398 48.1885 9.59277 48.249 9.59277C48.2939 9.59277 48.3408 9.58887 48.3896 9.58105C48.4404 9.57129 48.4785 9.56348 48.5039 9.55762L48.5068 10C48.4639 10.0137 48.4072 10.0264 48.3369 10.0381C48.2686 10.0518 48.1855 10.0586 48.0879 10.0586C47.9551 10.0586 47.833 10.0322 47.7217 9.97949C47.6104 9.92676 47.5215 9.83887 47.4551 9.71582C47.3906 9.59082 47.3584 9.42285 47.3584 9.21191V6.05957Z" fill="white"/>
<g clip-path="url(#clip0_113_11)">
<path d="M6 2H16V12H6V2Z" fill="#F0DB4F"/>
<path d="M14.5532 8.07855C14.48 7.62227 14.1825 7.23919 13.3013 6.88178C12.9952 6.74109 12.654 6.64034 12.5523 6.40839C12.5162 6.27341 12.5114 6.19737 12.5342 6.11562C12.5998 5.85041 12.9163 5.76771 13.1673 5.84375C13.3289 5.89794 13.4819 6.02247 13.5741 6.22113C14.0057 5.94167 14.0048 5.94356 14.3061 5.75156C14.1958 5.58046 14.1369 5.50155 14.0646 5.42837C13.8051 5.13844 13.4515 4.9892 12.8859 5.00061C12.788 5.01297 12.6892 5.02626 12.5913 5.03863C12.3089 5.10992 12.0399 5.25821 11.8821 5.45688C11.4087 5.99395 11.5437 6.93406 12.1198 7.32095C12.6873 7.74681 13.5209 7.84376 13.6274 8.24205C13.731 8.7297 13.269 8.88748 12.8099 8.83141C12.4715 8.76106 12.2833 8.58901 12.0798 8.27627C11.7053 8.493 11.7053 8.493 11.3204 8.71449C11.4116 8.91411 11.5076 9.00441 11.6607 9.17741C12.385 9.91221 14.1977 9.87608 14.5228 8.76392C14.5361 8.72588 14.6236 8.47113 14.5532 8.07855ZM10.808 5.05953H9.87262C9.87262 5.86752 9.86883 6.6698 9.86883 7.47779C9.86883 7.99204 9.89545 8.46353 9.8118 8.60801C9.67491 8.89222 9.32035 8.85706 9.15875 8.80192C8.99431 8.72112 8.91066 8.6061 8.8137 8.44356C8.78708 8.39699 8.76712 8.36086 8.76046 8.35801C8.50666 8.51296 8.2538 8.66884 8 8.82379C8.12644 9.0833 8.31274 9.30858 8.55133 9.45496C8.90779 9.66884 9.38688 9.73443 9.88784 9.61941C10.2139 9.52435 10.4952 9.32759 10.6426 9.02817C10.8555 8.63558 10.8099 8.16029 10.808 7.63463C10.8127 6.77722 10.808 5.9198 10.808 5.05953Z" fill="#323330"/>
</g>
<defs>
<clipPath id="clip0_113_11">
<rect x="6" y="2" width="10" height="10" rx="5" fill="white"/>
</clipPath>
</defs>
</svg>
