<svg width="44" height="15" viewBox="0 0 44 15" fill="none" xmlns="http://www.w3.org/2000/svg">
<rect width="44" height="15" rx="7.5" fill="#C6C4C4"/>
<path d="M17.6738 5.73438H18.2217L19.6191 9.21191L21.0137 5.73438H21.5645L19.8301 10H19.4023L17.6738 5.73438ZM17.4951 5.73438H17.9785L18.0576 8.33594V10H17.4951V5.73438ZM21.2568 5.73438H21.7402V10H21.1777V8.33594L21.2568 5.73438ZM23.542 9.67188L24.4238 6.83008H25.0039L23.7324 10.4893C23.7031 10.5674 23.6641 10.6514 23.6152 10.7412C23.5684 10.833 23.5078 10.9199 23.4336 11.002C23.3594 11.084 23.2695 11.1504 23.1641 11.2012C23.0605 11.2539 22.9365 11.2803 22.792 11.2803C22.749 11.2803 22.6943 11.2744 22.6279 11.2627C22.5615 11.251 22.5146 11.2412 22.4873 11.2334L22.4844 10.7939C22.5 10.7959 22.5244 10.7979 22.5576 10.7998C22.5928 10.8037 22.6172 10.8057 22.6309 10.8057C22.7539 10.8057 22.8584 10.7891 22.9443 10.7559C23.0303 10.7246 23.1025 10.6709 23.1611 10.5947C23.2217 10.5205 23.2734 10.418 23.3164 10.2871L23.542 9.67188ZM22.8945 6.83008L23.7178 9.29102L23.8584 9.8623L23.4688 10.0615L22.3027 6.83008H22.8945ZM27.8486 8.92188C27.8486 8.82227 27.833 8.73438 27.8018 8.6582C27.7725 8.58008 27.7197 8.50977 27.6436 8.44727C27.5693 8.38477 27.4658 8.3252 27.333 8.26855C27.2021 8.21191 27.0361 8.1543 26.835 8.0957C26.624 8.0332 26.4336 7.96387 26.2637 7.8877C26.0938 7.80957 25.9482 7.7207 25.8271 7.62109C25.7061 7.52148 25.6133 7.40723 25.5488 7.27832C25.4844 7.14941 25.4521 7.00195 25.4521 6.83594C25.4521 6.66992 25.4863 6.5166 25.5547 6.37598C25.623 6.23535 25.7207 6.11328 25.8477 6.00977C25.9766 5.9043 26.1299 5.82227 26.3076 5.76367C26.4854 5.70508 26.6836 5.67578 26.9023 5.67578C27.2227 5.67578 27.4941 5.7373 27.7168 5.86035C27.9414 5.98145 28.1123 6.14062 28.2295 6.33789C28.3467 6.5332 28.4053 6.74219 28.4053 6.96484H27.8428C27.8428 6.80469 27.8086 6.66309 27.7402 6.54004C27.6719 6.41504 27.5684 6.31738 27.4297 6.24707C27.291 6.1748 27.1152 6.13867 26.9023 6.13867C26.7012 6.13867 26.5352 6.16895 26.4043 6.22949C26.2734 6.29004 26.1758 6.37207 26.1113 6.47559C26.0488 6.5791 26.0176 6.69727 26.0176 6.83008C26.0176 6.91992 26.0361 7.00195 26.0732 7.07617C26.1123 7.14844 26.1719 7.21582 26.252 7.27832C26.334 7.34082 26.4375 7.39844 26.5625 7.45117C26.6895 7.50391 26.8408 7.55469 27.0166 7.60352C27.2588 7.67188 27.4678 7.74805 27.6436 7.83203C27.8193 7.91602 27.9639 8.01074 28.0771 8.11621C28.1924 8.21973 28.2773 8.33789 28.332 8.4707C28.3887 8.60156 28.417 8.75 28.417 8.91602C28.417 9.08984 28.3818 9.24707 28.3115 9.3877C28.2412 9.52832 28.1406 9.64844 28.0098 9.74805C27.8789 9.84766 27.7217 9.9248 27.5381 9.97949C27.3564 10.0322 27.1533 10.0586 26.9287 10.0586C26.7314 10.0586 26.5371 10.0312 26.3457 9.97656C26.1562 9.92188 25.9834 9.83984 25.8271 9.73047C25.6729 9.62109 25.5488 9.48633 25.4551 9.32617C25.3633 9.16406 25.3174 8.97656 25.3174 8.76367H25.8799C25.8799 8.91016 25.9082 9.03613 25.9648 9.1416C26.0215 9.24512 26.0986 9.33105 26.1963 9.39941C26.2959 9.46777 26.4082 9.51855 26.5332 9.55176C26.6602 9.58301 26.792 9.59863 26.9287 9.59863C27.126 9.59863 27.293 9.57129 27.4297 9.5166C27.5664 9.46191 27.6699 9.38379 27.7402 9.28223C27.8125 9.18066 27.8486 9.06055 27.8486 8.92188ZM31.3262 9.51074L32.4102 10.3691L32.0293 10.7207L30.9629 9.87402L31.3262 9.51074ZM32.3955 7.73242V8.00195C32.3955 8.32227 32.3555 8.60938 32.2754 8.86328C32.1953 9.11719 32.0801 9.33301 31.9297 9.51074C31.7793 9.68848 31.5986 9.82422 31.3877 9.91797C31.1787 10.0117 30.9443 10.0586 30.6846 10.0586C30.4326 10.0586 30.2012 10.0117 29.9902 9.91797C29.7812 9.82422 29.5996 9.68848 29.4453 9.51074C29.293 9.33301 29.1748 9.11719 29.0908 8.86328C29.0068 8.60938 28.9648 8.32227 28.9648 8.00195V7.73242C28.9648 7.41211 29.0059 7.12598 29.0879 6.87402C29.1719 6.62012 29.29 6.4043 29.4424 6.22656C29.5947 6.04688 29.7754 5.91016 29.9844 5.81641C30.1953 5.72266 30.4268 5.67578 30.6787 5.67578C30.9385 5.67578 31.1738 5.72266 31.3848 5.81641C31.5957 5.91016 31.7764 6.04688 31.9268 6.22656C32.0771 6.4043 32.1924 6.62012 32.2725 6.87402C32.3545 7.12598 32.3955 7.41211 32.3955 7.73242ZM31.8359 8.00195V7.72656C31.8359 7.47266 31.8096 7.24805 31.7568 7.05273C31.7061 6.85742 31.6309 6.69336 31.5312 6.56055C31.4316 6.42773 31.3105 6.32715 31.168 6.25879C31.0254 6.19043 30.8623 6.15625 30.6787 6.15625C30.5049 6.15625 30.3467 6.19043 30.2041 6.25879C30.0635 6.32715 29.9424 6.42773 29.8408 6.56055C29.7393 6.69336 29.6611 6.85742 29.6064 7.05273C29.5518 7.24805 29.5244 7.47266 29.5244 7.72656V8.00195C29.5244 8.25781 29.5518 8.48438 29.6064 8.68164C29.6611 8.87695 29.7393 9.04199 29.8408 9.17676C29.9443 9.30957 30.0674 9.41016 30.21 9.47852C30.3525 9.54688 30.5107 9.58105 30.6846 9.58105C30.8682 9.58105 31.0312 9.54688 31.1738 9.47852C31.3164 9.41016 31.4365 9.30957 31.5342 9.17676C31.6338 9.04199 31.709 8.87695 31.7598 8.68164C31.8105 8.48438 31.8359 8.25781 31.8359 8.00195ZM35.8555 9.54004V10H33.7227V9.54004H35.8555ZM33.834 5.73438V10H33.2686V5.73438H33.834Z" fill="#FF5900"/>
<path d="M13.2265 10.5729C12.6797 10.5729 12.25 10.6119 11.8984 10.7682C11.7812 10.8072 11.625 10.8072 11.625 10.9244L11.7422 11.1588C11.8203 11.276 11.9375 11.4713 12.0937 11.5885L12.5234 11.901L13.3437 12.2916L13.7734 12.6432L14.0078 12.7994L13.8906 12.5651L13.6953 12.3697C13.5 12.0963 13.2656 11.8619 12.9922 11.6666C12.7578 11.5494 12.289 11.3151 12.2109 11.0807H12.1718L12.6406 10.9635L13.3437 10.8463L13.6562 10.7682V10.6901L13.3047 10.2994C12.9922 9.98693 12.6015 9.7135 12.2109 9.44006L11.5078 9.12756C11.4297 9.0885 11.2734 9.04943 11.2343 8.97131L10.9609 8.4635L10.375 7.29162L10.0625 6.51037C9.35934 5.3385 8.57809 4.63537 7.40622 3.97131C7.17184 3.81506 6.85934 3.776 6.54684 3.69787L6.03903 3.65881L5.72653 3.42443C5.3359 3.19006 4.32028 2.64318 4.04684 3.34631C3.85153 3.776 4.32028 4.20568 4.47653 4.44006L4.82809 4.94787L4.94528 5.29943C5.06247 5.61193 5.14059 5.9635 5.29684 6.23693L5.53122 6.62756C5.60934 6.70568 5.68747 6.74475 5.72653 6.86193C5.60934 7.01818 5.60934 7.2135 5.57028 7.36975C5.29684 8.151 5.41403 9.0885 5.76559 9.67443C5.84372 9.83068 6.11715 10.2213 6.46872 10.0651C6.78122 9.94787 6.70309 9.55725 6.78122 9.20568L6.82028 9.04943L7.13278 9.59631C7.32809 9.94787 7.67965 10.2994 7.99215 10.5338C8.1484 10.651 8.30465 10.8463 8.49997 10.9244L8.34372 10.7682L7.99215 10.3776C7.67965 9.98693 7.44528 9.55725 7.2109 9.12756L6.93747 8.4635L6.82028 8.22912C6.70309 8.38537 6.54684 8.50256 6.46872 8.69787C6.35153 8.97131 6.35153 9.36193 6.31247 9.7135H6.2734C6.03903 9.67443 5.9609 9.44006 5.88278 9.24475C5.68747 8.776 5.6484 7.99475 5.84372 7.44787C5.88278 7.29162 6.07809 6.86193 5.99997 6.70568C5.9609 6.5885 5.84372 6.51037 5.76559 6.43225L5.49215 5.9635L5.10153 4.79162L4.74997 4.28381C4.63278 4.0885 4.47653 3.97131 4.35934 3.73693C4.32028 3.65881 4.28122 3.54162 4.35934 3.4635L4.43747 3.38537C4.51559 3.30725 4.78903 3.38537 4.86715 3.42443C5.10153 3.54162 5.3359 3.61975 5.53122 3.776L5.84372 4.01037H5.99997C6.23434 4.04943 6.46872 4.01037 6.66403 4.0885C7.01559 4.20568 7.36715 4.36193 7.64059 4.55725C8.53903 5.10412 9.28122 5.92443 9.74997 6.86193C9.86715 7.01818 9.86715 7.17443 9.94528 7.33068L10.414 8.34631C10.5703 8.65881 10.6875 8.97131 10.8828 9.24475C11 9.401 11.4297 9.47912 11.5859 9.55725L12.0547 9.7135L12.7578 10.1822C12.8359 10.2604 13.1875 10.4557 13.2265 10.5729Z" fill="#00546B"/>
<path d="M6.27344 4.67432L6 4.71338L6.23438 4.98682L6.39062 5.33838V5.29932C6.50781 5.26025 6.54688 5.14307 6.54688 4.98682L6.46875 4.83057L6.27344 4.67432Z" fill="#00546B"/>
</svg>
