<svg width="56" height="15" viewBox="0 0 56 15" fill="none" xmlns="http://www.w3.org/2000/svg">
<rect width="56" height="15" rx="7.5" fill="#FBFBFB"/>
<path d="M20.7686 8.92188C20.7686 8.82227 20.7529 8.73438 20.7217 8.6582C20.6924 8.58008 20.6396 8.50977 20.5635 8.44727C20.4893 8.38477 20.3857 8.3252 20.2529 8.26855C20.1221 8.21191 19.9561 8.1543 19.7549 8.0957C19.5439 8.0332 19.3535 7.96387 19.1836 7.8877C19.0137 7.80957 18.8682 7.7207 18.7471 7.62109C18.626 7.52148 18.5332 7.40723 18.4688 7.27832C18.4043 7.14941 18.3721 7.00195 18.3721 6.83594C18.3721 6.66992 18.4062 6.5166 18.4746 6.37598C18.543 6.23535 18.6406 6.11328 18.7676 6.00977C18.8965 5.9043 19.0498 5.82227 19.2275 5.76367C19.4053 5.70508 19.6035 5.67578 19.8223 5.67578C20.1426 5.67578 20.4141 5.7373 20.6367 5.86035C20.8613 5.98145 21.0322 6.14062 21.1494 6.33789C21.2666 6.5332 21.3252 6.74219 21.3252 6.96484H20.7627C20.7627 6.80469 20.7285 6.66309 20.6602 6.54004C20.5918 6.41504 20.4883 6.31738 20.3496 6.24707C20.2109 6.1748 20.0352 6.13867 19.8223 6.13867C19.6211 6.13867 19.4551 6.16895 19.3242 6.22949C19.1934 6.29004 19.0957 6.37207 19.0312 6.47559C18.9688 6.5791 18.9375 6.69727 18.9375 6.83008C18.9375 6.91992 18.9561 7.00195 18.9932 7.07617C19.0322 7.14844 19.0918 7.21582 19.1719 7.27832C19.2539 7.34082 19.3574 7.39844 19.4824 7.45117C19.6094 7.50391 19.7607 7.55469 19.9365 7.60352C20.1787 7.67188 20.3877 7.74805 20.5635 7.83203C20.7393 7.91602 20.8838 8.01074 20.9971 8.11621C21.1123 8.21973 21.1973 8.33789 21.252 8.4707C21.3086 8.60156 21.3369 8.75 21.3369 8.91602C21.3369 9.08984 21.3018 9.24707 21.2314 9.3877C21.1611 9.52832 21.0605 9.64844 20.9297 9.74805C20.7988 9.84766 20.6416 9.9248 20.458 9.97949C20.2764 10.0322 20.0732 10.0586 19.8486 10.0586C19.6514 10.0586 19.457 10.0312 19.2656 9.97656C19.0762 9.92188 18.9033 9.83984 18.7471 9.73047C18.5928 9.62109 18.4688 9.48633 18.375 9.32617C18.2832 9.16406 18.2373 8.97656 18.2373 8.76367H18.7998C18.7998 8.91016 18.8281 9.03613 18.8848 9.1416C18.9414 9.24512 19.0186 9.33105 19.1162 9.39941C19.2158 9.46777 19.3281 9.51855 19.4531 9.55176C19.5801 9.58301 19.7119 9.59863 19.8486 9.59863C20.0459 9.59863 20.2129 9.57129 20.3496 9.5166C20.4863 9.46191 20.5898 9.38379 20.6602 9.28223C20.7324 9.18066 20.7686 9.06055 20.7686 8.92188ZM24.2461 9.51074L25.3301 10.3691L24.9492 10.7207L23.8828 9.87402L24.2461 9.51074ZM25.3154 7.73242V8.00195C25.3154 8.32227 25.2754 8.60938 25.1953 8.86328C25.1152 9.11719 25 9.33301 24.8496 9.51074C24.6992 9.68848 24.5186 9.82422 24.3076 9.91797C24.0986 10.0117 23.8643 10.0586 23.6045 10.0586C23.3525 10.0586 23.1211 10.0117 22.9102 9.91797C22.7012 9.82422 22.5195 9.68848 22.3652 9.51074C22.2129 9.33301 22.0947 9.11719 22.0107 8.86328C21.9268 8.60938 21.8848 8.32227 21.8848 8.00195V7.73242C21.8848 7.41211 21.9258 7.12598 22.0078 6.87402C22.0918 6.62012 22.21 6.4043 22.3623 6.22656C22.5146 6.04688 22.6953 5.91016 22.9043 5.81641C23.1152 5.72266 23.3467 5.67578 23.5986 5.67578C23.8584 5.67578 24.0938 5.72266 24.3047 5.81641C24.5156 5.91016 24.6963 6.04688 24.8467 6.22656C24.9971 6.4043 25.1123 6.62012 25.1924 6.87402C25.2744 7.12598 25.3154 7.41211 25.3154 7.73242ZM24.7559 8.00195V7.72656C24.7559 7.47266 24.7295 7.24805 24.6768 7.05273C24.626 6.85742 24.5508 6.69336 24.4512 6.56055C24.3516 6.42773 24.2305 6.32715 24.0879 6.25879C23.9453 6.19043 23.7822 6.15625 23.5986 6.15625C23.4248 6.15625 23.2666 6.19043 23.124 6.25879C22.9834 6.32715 22.8623 6.42773 22.7607 6.56055C22.6592 6.69336 22.5811 6.85742 22.5264 7.05273C22.4717 7.24805 22.4443 7.47266 22.4443 7.72656V8.00195C22.4443 8.25781 22.4717 8.48438 22.5264 8.68164C22.5811 8.87695 22.6592 9.04199 22.7607 9.17676C22.8643 9.30957 22.9873 9.41016 23.1299 9.47852C23.2725 9.54688 23.4307 9.58105 23.6045 9.58105C23.7881 9.58105 23.9512 9.54688 24.0938 9.47852C24.2363 9.41016 24.3564 9.30957 24.4541 9.17676C24.5537 9.04199 24.6289 8.87695 24.6797 8.68164C24.7305 8.48438 24.7559 8.25781 24.7559 8.00195ZM28.7754 9.54004V10H26.6426V9.54004H28.7754ZM26.7539 5.73438V10H26.1885V5.73438H26.7539ZM33.1846 8.92188C33.1846 8.82227 33.1689 8.73438 33.1377 8.6582C33.1084 8.58008 33.0557 8.50977 32.9795 8.44727C32.9053 8.38477 32.8018 8.3252 32.6689 8.26855C32.5381 8.21191 32.3721 8.1543 32.1709 8.0957C31.96 8.0332 31.7695 7.96387 31.5996 7.8877C31.4297 7.80957 31.2842 7.7207 31.1631 7.62109C31.042 7.52148 30.9492 7.40723 30.8848 7.27832C30.8203 7.14941 30.7881 7.00195 30.7881 6.83594C30.7881 6.66992 30.8223 6.5166 30.8906 6.37598C30.959 6.23535 31.0566 6.11328 31.1836 6.00977C31.3125 5.9043 31.4658 5.82227 31.6436 5.76367C31.8213 5.70508 32.0195 5.67578 32.2383 5.67578C32.5586 5.67578 32.8301 5.7373 33.0527 5.86035C33.2773 5.98145 33.4482 6.14062 33.5654 6.33789C33.6826 6.5332 33.7412 6.74219 33.7412 6.96484H33.1787C33.1787 6.80469 33.1445 6.66309 33.0762 6.54004C33.0078 6.41504 32.9043 6.31738 32.7656 6.24707C32.627 6.1748 32.4512 6.13867 32.2383 6.13867C32.0371 6.13867 31.8711 6.16895 31.7402 6.22949C31.6094 6.29004 31.5117 6.37207 31.4473 6.47559C31.3848 6.5791 31.3535 6.69727 31.3535 6.83008C31.3535 6.91992 31.3721 7.00195 31.4092 7.07617C31.4482 7.14844 31.5078 7.21582 31.5879 7.27832C31.6699 7.34082 31.7734 7.39844 31.8984 7.45117C32.0254 7.50391 32.1768 7.55469 32.3525 7.60352C32.5947 7.67188 32.8037 7.74805 32.9795 7.83203C33.1553 7.91602 33.2998 8.01074 33.4131 8.11621C33.5283 8.21973 33.6133 8.33789 33.668 8.4707C33.7246 8.60156 33.7529 8.75 33.7529 8.91602C33.7529 9.08984 33.7178 9.24707 33.6475 9.3877C33.5771 9.52832 33.4766 9.64844 33.3457 9.74805C33.2148 9.84766 33.0576 9.9248 32.874 9.97949C32.6924 10.0322 32.4893 10.0586 32.2646 10.0586C32.0674 10.0586 31.873 10.0312 31.6816 9.97656C31.4922 9.92188 31.3193 9.83984 31.1631 9.73047C31.0088 9.62109 30.8848 9.48633 30.791 9.32617C30.6992 9.16406 30.6533 8.97656 30.6533 8.76367H31.2158C31.2158 8.91016 31.2441 9.03613 31.3008 9.1416C31.3574 9.24512 31.4346 9.33105 31.5322 9.39941C31.6318 9.46777 31.7441 9.51855 31.8691 9.55176C31.9961 9.58301 32.1279 9.59863 32.2646 9.59863C32.4619 9.59863 32.6289 9.57129 32.7656 9.5166C32.9023 9.46191 33.0059 9.38379 33.0762 9.28223C33.1484 9.18066 33.1846 9.06055 33.1846 8.92188ZM35.707 10.0586C35.4863 10.0586 35.2861 10.0215 35.1064 9.94727C34.9287 9.87109 34.7754 9.76465 34.6465 9.62793C34.5195 9.49121 34.4219 9.3291 34.3535 9.1416C34.2852 8.9541 34.251 8.74902 34.251 8.52637V8.40332C34.251 8.14551 34.2891 7.91602 34.3652 7.71484C34.4414 7.51172 34.5449 7.33984 34.6758 7.19922C34.8066 7.05859 34.9551 6.95215 35.1211 6.87988C35.2871 6.80762 35.459 6.77148 35.6367 6.77148C35.8633 6.77148 36.0586 6.81055 36.2227 6.88867C36.3887 6.9668 36.5244 7.07617 36.6299 7.2168C36.7354 7.35547 36.8135 7.51953 36.8643 7.70898C36.915 7.89648 36.9404 8.10156 36.9404 8.32422V8.56738H34.5732V8.125H36.3984V8.08398C36.3906 7.94336 36.3613 7.80664 36.3105 7.67383C36.2617 7.54102 36.1836 7.43164 36.0762 7.3457C35.9688 7.25977 35.8223 7.2168 35.6367 7.2168C35.5137 7.2168 35.4004 7.24316 35.2969 7.2959C35.1934 7.34668 35.1045 7.42285 35.0303 7.52441C34.9561 7.62598 34.8984 7.75 34.8574 7.89648C34.8164 8.04297 34.7959 8.21191 34.7959 8.40332V8.52637C34.7959 8.67676 34.8164 8.81836 34.8574 8.95117C34.9004 9.08203 34.9619 9.19727 35.042 9.29688C35.124 9.39648 35.2227 9.47461 35.3379 9.53125C35.4551 9.58789 35.5879 9.61621 35.7363 9.61621C35.9277 9.61621 36.0898 9.57715 36.2227 9.49902C36.3555 9.4209 36.4717 9.31641 36.5713 9.18555L36.8994 9.44629C36.8311 9.5498 36.7441 9.64844 36.6387 9.74219C36.5332 9.83594 36.4033 9.91211 36.249 9.9707C36.0967 10.0293 35.916 10.0586 35.707 10.0586ZM38.1152 7.32812V10H37.5732V6.83008H38.1006L38.1152 7.32812ZM39.1055 6.8125L39.1025 7.31641C39.0576 7.30664 39.0146 7.30078 38.9736 7.29883C38.9346 7.29492 38.8896 7.29297 38.8389 7.29297C38.7139 7.29297 38.6035 7.3125 38.5078 7.35156C38.4121 7.39062 38.3311 7.44531 38.2646 7.51562C38.1982 7.58594 38.1455 7.66992 38.1064 7.76758C38.0693 7.86328 38.0449 7.96875 38.0332 8.08398L37.8809 8.17188C37.8809 7.98047 37.8994 7.80078 37.9365 7.63281C37.9756 7.46484 38.0352 7.31641 38.1152 7.1875C38.1953 7.05664 38.2969 6.95508 38.4199 6.88281C38.5449 6.80859 38.6934 6.77148 38.8652 6.77148C38.9043 6.77148 38.9492 6.77637 39 6.78613C39.0508 6.79395 39.0859 6.80273 39.1055 6.8125ZM40.623 9.51074L41.4902 6.83008H42.0439L40.9043 10H40.541L40.623 9.51074ZM39.8994 6.83008L40.793 9.52539L40.8545 10H40.4912L39.3428 6.83008H39.8994ZM43.8398 10.0586C43.6191 10.0586 43.4189 10.0215 43.2393 9.94727C43.0615 9.87109 42.9082 9.76465 42.7793 9.62793C42.6523 9.49121 42.5547 9.3291 42.4863 9.1416C42.418 8.9541 42.3838 8.74902 42.3838 8.52637V8.40332C42.3838 8.14551 42.4219 7.91602 42.498 7.71484C42.5742 7.51172 42.6777 7.33984 42.8086 7.19922C42.9395 7.05859 43.0879 6.95215 43.2539 6.87988C43.4199 6.80762 43.5918 6.77148 43.7695 6.77148C43.9961 6.77148 44.1914 6.81055 44.3555 6.88867C44.5215 6.9668 44.6572 7.07617 44.7627 7.2168C44.8682 7.35547 44.9463 7.51953 44.9971 7.70898C45.0479 7.89648 45.0732 8.10156 45.0732 8.32422V8.56738H42.7061V8.125H44.5312V8.08398C44.5234 7.94336 44.4941 7.80664 44.4434 7.67383C44.3945 7.54102 44.3164 7.43164 44.209 7.3457C44.1016 7.25977 43.9551 7.2168 43.7695 7.2168C43.6465 7.2168 43.5332 7.24316 43.4297 7.2959C43.3262 7.34668 43.2373 7.42285 43.1631 7.52441C43.0889 7.62598 43.0312 7.75 42.9902 7.89648C42.9492 8.04297 42.9287 8.21191 42.9287 8.40332V8.52637C42.9287 8.67676 42.9492 8.81836 42.9902 8.95117C43.0332 9.08203 43.0947 9.19727 43.1748 9.29688C43.2568 9.39648 43.3555 9.47461 43.4707 9.53125C43.5879 9.58789 43.7207 9.61621 43.8691 9.61621C44.0605 9.61621 44.2227 9.57715 44.3555 9.49902C44.4883 9.4209 44.6045 9.31641 44.7041 9.18555L45.0322 9.44629C44.9639 9.5498 44.877 9.64844 44.7715 9.74219C44.666 9.83594 44.5361 9.91211 44.3818 9.9707C44.2295 10.0293 44.0488 10.0586 43.8398 10.0586ZM46.248 7.32812V10H45.7061V6.83008H46.2334L46.248 7.32812ZM47.2383 6.8125L47.2354 7.31641C47.1904 7.30664 47.1475 7.30078 47.1064 7.29883C47.0674 7.29492 47.0225 7.29297 46.9717 7.29297C46.8467 7.29297 46.7363 7.3125 46.6406 7.35156C46.5449 7.39062 46.4639 7.44531 46.3975 7.51562C46.3311 7.58594 46.2783 7.66992 46.2393 7.76758C46.2021 7.86328 46.1777 7.96875 46.166 8.08398L46.0137 8.17188C46.0137 7.98047 46.0322 7.80078 46.0693 7.63281C46.1084 7.46484 46.168 7.31641 46.248 7.1875C46.3281 7.05664 46.4297 6.95508 46.5527 6.88281C46.6777 6.80859 46.8262 6.77148 46.998 6.77148C47.0371 6.77148 47.082 6.77637 47.1328 6.78613C47.1836 6.79395 47.2188 6.80273 47.2383 6.8125Z" fill="#05142B"/>
<path d="M10.6256 4.24381C10.1835 3.58079 10.088 2.69469 10.0671 2.33056C8.94412 2.57341 7.82844 3.00901 7.89288 3.32983C7.901 3.37017 7.9519 3.41863 8.03636 3.46573L7.90425 3.70208C7.74289 3.61166 7.6522 3.50743 7.62756 3.38289C7.55474 3.01984 7.96597 2.69144 8.88429 2.37875C9.30593 2.23838 9.73541 2.12277 10.1705 2.03249L10.3322 2V2.16542C10.3322 2.17679 10.3392 3.32631 10.8509 4.09383L10.6256 4.24381ZM11.0769 12.8322H11.009C8.79116 12.8322 6.32291 12.1356 6.03134 10.9698C5.85347 10.2578 6.43527 9.47107 7.71365 8.69543L7.85443 8.92663C6.7041 9.62484 6.14992 10.3268 6.29422 10.9043C6.54735 11.9163 8.88646 12.5471 10.9381 12.5612C11.182 12.1965 12.4926 10.0542 11.7446 7.18096L12.0064 7.11274C12.8589 10.3864 11.1351 12.7539 11.1178 12.7775L11.0769 12.8322Z" fill="#CFD8DC"/>
<path d="M7.06508 11.8321C6.91916 11.8321 6.84688 11.8162 6.83496 11.8132C6.81153 11.8076 6.79002 11.7958 6.77268 11.7791C6.75533 11.7624 6.74279 11.7413 6.73635 11.7181C6.72991 11.6949 6.72981 11.6703 6.73606 11.6471C6.74231 11.6238 6.75468 11.6026 6.77188 11.5858C6.79138 11.5663 8.72033 9.63434 8.98077 8.07222L9.24771 8.11662C9.02382 9.46053 7.70049 10.9926 7.175 11.5568C7.69995 11.5267 9.02544 11.2809 11.57 9.85661C9.58423 9.63894 9.27018 8.04921 9.26693 8.03216L9.53306 7.98315C9.54578 8.04975 9.86498 9.61051 12.0357 9.61051H12.0379C12.0677 9.61045 12.0967 9.62024 12.1204 9.63836C12.1441 9.65648 12.1611 9.68191 12.1688 9.71071C12.1766 9.73951 12.1746 9.77006 12.1632 9.79761C12.1518 9.82517 12.1316 9.84819 12.1058 9.8631C9.06416 11.6253 7.58922 11.8319 7.06508 11.8321Z" fill="#CFD8DC"/>
<path d="M8.30827 12.4803C8.27949 12.4805 8.25139 12.4715 8.22807 12.4546C8.20474 12.4378 8.18742 12.4139 8.17863 12.3865C8.16983 12.359 8.17003 12.3295 8.17918 12.3023C8.18832 12.275 8.20595 12.2513 8.22949 12.2347C8.2387 12.228 8.72033 11.8725 9.23282 11.0901C9.02845 10.9999 8.82989 10.8971 8.63829 10.7823C8.39789 10.638 8.21623 10.4831 8.08059 10.3245C7.38481 10.508 6.74264 10.5806 6.17871 10.5326L6.20145 10.263C6.70934 10.306 7.28681 10.2459 7.91274 10.0897C7.48688 9.36201 7.87781 8.6397 7.88323 8.62995L8.11985 8.7618C8.10171 8.79483 7.77737 9.40343 8.18726 10.0161C8.78313 9.84499 9.41881 9.59186 10.0767 9.26292C10.2434 8.70897 10.3544 8.13979 10.4083 7.56382C10.4105 7.54237 10.4177 7.52175 10.4294 7.50366C10.4411 7.48556 10.457 7.47052 10.4757 7.45978C10.4944 7.44903 10.5153 7.4429 10.5369 7.44187C10.5584 7.44085 10.5798 7.44498 10.5995 7.4539C10.6081 7.45796 11.4831 7.85756 12.1166 8.11827C12.1393 8.12757 12.1589 8.14282 12.1736 8.1624C12.1882 8.18198 12.1973 8.20517 12.1998 8.22949C12.2023 8.25382 12.1982 8.27837 12.1879 8.30054C12.1776 8.32272 12.1615 8.34169 12.1413 8.35543C11.5533 8.75849 10.9404 9.12399 10.3063 9.44973C10.1419 9.97768 9.91859 10.4854 9.64054 10.9634C10.6428 11.3378 11.5126 11.3435 11.5237 11.3435C11.5538 11.3434 11.5831 11.3533 11.6069 11.3716C11.6307 11.39 11.6477 11.4158 11.6553 11.4449C11.6628 11.474 11.6604 11.5048 11.6485 11.5324C11.6366 11.5601 11.6159 11.5829 11.5895 11.5974C10.3604 12.2802 8.40384 12.4724 8.32127 12.4803H8.30827ZM9.49543 11.1989C9.21387 11.6359 8.93718 11.9496 8.73034 12.1546C9.27126 12.075 10.2196 11.9006 11.0066 11.5755C10.4895 11.5117 9.98203 11.3853 9.49543 11.1989ZM8.37406 10.2416C8.48046 10.3477 8.61312 10.4514 8.77745 10.5502C8.97671 10.6699 9.17894 10.7714 9.37847 10.8575C9.61123 10.465 9.80544 10.0508 9.95837 9.62083C9.41123 9.88127 8.88006 10.0892 8.37406 10.2416ZM10.6577 7.77743C10.6072 8.22052 10.5246 8.65936 10.4105 9.09047C10.88 8.83912 11.3373 8.56574 11.7809 8.27124C11.4047 8.11073 11.0303 7.94612 10.6577 7.77743ZM9.22876 4.06057C9.19651 4.06048 9.16534 4.04897 9.14077 4.02808C8.70489 3.65502 8.19186 2.89589 8.1702 2.86367C8.15331 2.83853 8.14535 2.80844 8.14757 2.77823C8.1498 2.74803 8.1621 2.71944 8.1825 2.69704C8.2029 2.67465 8.23022 2.65974 8.26009 2.65471C8.28996 2.64968 8.32065 2.65481 8.34726 2.66929C8.35024 2.6701 8.6012 2.77352 10.3011 3.0567C10.3251 3.06058 10.3477 3.07087 10.3663 3.08648C10.385 3.1021 10.3991 3.12246 10.4071 3.14542C10.4151 3.16838 10.4168 3.19308 10.412 3.21692C10.4072 3.24076 10.396 3.26285 10.3796 3.28087C9.90369 3.8096 9.3024 4.04243 9.27695 4.05191C9.2615 4.05755 9.2452 4.06048 9.22876 4.06057ZM8.6123 3.01718C8.78313 3.24703 9.02923 3.55755 9.25448 3.76683C9.52468 3.64196 9.775 3.47794 9.99736 3.28006C9.29806 3.16066 8.87139 3.07565 8.6123 3.01718Z" fill="#CFD8DC"/>
<path d="M10.2895 7.79655C10.2705 7.79654 10.2518 7.79254 10.2345 7.78483C10.2172 7.77711 10.2017 7.76584 10.189 7.75176C10.1763 7.73767 10.1667 7.72107 10.1609 7.70304C10.155 7.68502 10.153 7.66596 10.1549 7.6471C10.234 6.90287 9.09206 6.60425 9.08042 6.60154C9.05726 6.59564 9.03608 6.5837 9.01903 6.56696C9.00198 6.55021 8.98967 6.52925 8.98334 6.50621C8.97702 6.48316 8.97691 6.45885 8.98302 6.43575C8.98913 6.41264 9.00126 6.39157 9.01815 6.37467C9.07419 6.31863 10.4094 4.99449 12.0847 4.26731C12.1074 4.25744 12.1324 4.25399 12.157 4.25735C12.1815 4.26071 12.2047 4.27074 12.2239 4.28635C12.2432 4.30196 12.2577 4.32255 12.2661 4.34588C12.2744 4.3692 12.2762 4.39438 12.2712 4.41865C11.9502 5.97372 10.4546 7.67932 10.3913 7.75106C10.3784 7.76531 10.3627 7.77671 10.3452 7.78454C10.3277 7.79237 10.3087 7.79646 10.2895 7.79655ZM9.37227 6.41176C9.69281 6.53224 10.2543 6.81109 10.3964 7.32033C10.7887 6.83085 11.6261 5.70326 11.9388 4.6309C10.7511 5.20214 9.75102 6.0636 9.37227 6.41176Z" fill="#B71C1C"/>
<path d="M7.91668 8.86866L7.78809 8.63042C8.29787 8.35563 8.88184 7.8499 9.36022 7.26215C8.95304 7.541 8.71994 7.73187 8.71263 7.73809L8.53963 7.52963C8.55019 7.52097 9.0172 7.13788 9.79338 6.65788C10.0064 6.31513 10.1702 5.96264 10.2544 5.62477C10.2688 5.56738 10.2812 5.51188 10.2913 5.45827C9.7701 5.27228 9.28928 5.1621 8.95899 5.11472C8.93451 5.11127 8.91144 5.10118 8.89228 5.08555C8.87312 5.06992 8.85862 5.04933 8.85033 5.02604C8.84204 5.00274 8.8403 4.97762 8.84528 4.9534C8.85026 4.92918 8.86178 4.90679 8.87859 4.88866C8.9016 4.86375 9.45145 4.27464 10.1386 3.95112C10.1647 3.93884 10.194 3.93521 10.2223 3.94077C10.2506 3.94632 10.2763 3.96076 10.2959 3.98198C10.314 4.00175 10.6857 4.41921 10.5912 5.28284C10.9039 5.40467 11.2261 5.55276 11.5363 5.729C12.2833 5.3933 13.1315 5.09116 14.0349 4.90869C14.0587 4.90419 14.0833 4.90602 14.1061 4.91401C14.129 4.92199 14.1493 4.93584 14.1651 4.95417C14.1968 4.99208 14.2055 5.04433 14.1876 5.09035C13.8357 5.99242 12.8919 6.95595 12.8518 6.99656C12.8383 7.01011 12.8221 7.02065 12.8042 7.02751C12.7864 7.03437 12.7673 7.03738 12.7482 7.03636C12.729 7.03534 12.7104 7.0303 12.6933 7.02158C12.6763 7.01286 12.6613 7.00064 12.6493 6.98573C12.3461 6.60455 11.9497 6.28887 11.5223 6.03195C10.9937 6.27684 10.4798 6.55246 9.98344 6.85741C9.43656 7.71102 8.61111 8.49478 7.91668 8.86866ZM11.8187 5.90038C12.168 6.12562 12.4931 6.3904 12.7619 6.69849C12.9861 6.45537 13.524 5.84082 13.8292 5.23059C13.1117 5.39574 12.4327 5.63479 11.8187 5.90038ZM10.5482 5.55547C10.5392 5.59959 10.529 5.64481 10.5176 5.69083C10.4607 5.91797 10.3703 6.15134 10.2544 6.38417C10.5746 6.20107 10.9013 6.02968 11.2339 5.87033C11.0113 5.75294 10.7823 5.64783 10.5482 5.55547ZM9.26194 4.89218C9.56272 4.9512 9.93335 5.04758 10.3289 5.18619C10.37 4.68723 10.2352 4.38158 10.1537 4.24622C9.7812 4.4406 9.45497 4.71404 9.26194 4.89218Z" fill="#B71C1C"/>
<path d="M9.26273 6.19928C9.26273 7.38508 8.27457 8.32722 7.56255 9.01487C7.44343 9.13129 7.04004 9.15024 7.04004 9.15024C7.14021 9.04736 7.25392 8.93907 7.37574 8.82265C8.05257 8.16749 8.992 7.27137 8.992 6.19928C8.992 4.92955 8.48032 4.4287 8.07694 4.02802C7.89825 3.84663 7.74664 3.67337 7.6546 3.4622L7.73852 3.427C7.83057 3.46761 7.93616 3.51364 8.01737 3.54883C8.08235 3.64359 8.16898 3.73563 8.26915 3.8358C8.68337 4.25002 9.26273 4.81855 9.26273 6.19928Z" fill="#B71C1C"/>
<path d="M15.9998 6.54964C15.9998 6.54964 15.836 6.57293 15.79 6.57834C13.4184 6.84095 10.971 7.52319 9.57133 8.0836C9.06506 8.28665 8.53985 8.53301 8.06065 8.80916C8.05795 8.81186 8.05524 8.81186 8.04982 8.81457C7.76826 8.97701 7.08332 9.31271 6.52832 9.60781C7.34051 8.74418 8.86201 8.07819 9.46845 7.83453C10.8411 7.28495 13.1991 6.62166 15.5193 6.33739C15.2458 6.01793 14.5771 5.3411 13.2614 4.83754C12.4925 4.53974 11.323 4.37189 10.2915 4.22299C8.65085 3.98745 7.71683 3.83043 7.62748 3.38372C7.60853 3.29438 7.62207 3.20504 7.66268 3.11841C7.75202 3.2646 7.87926 3.36748 7.96319 3.42704C8.0038 3.45411 8.03358 3.47036 8.04441 3.47577L8.04712 3.47848C8.43155 3.68153 9.46845 3.83043 10.3321 3.95496C11.3771 4.10657 12.5602 4.27713 13.3588 4.58306C15.2188 5.30049 15.8604 6.32656 15.8875 6.36988C15.9118 6.41049 15.9998 6.54964 15.9998 6.54964Z" fill="#B71C1C"/>
</svg>
