<svg width="68" height="15" viewBox="0 0 68 15" fill="none" xmlns="http://www.w3.org/2000/svg">
<rect width="64" height="15" rx="7.5" fill="#000F71"/>
<path d="M26.0713 5.73438V10H25.5146V5.73438H26.0713ZM27.4424 5.73438V6.19727H24.1465V5.73438H27.4424ZM29.5283 9.45801V7.82617C29.5283 7.70117 29.5029 7.59277 29.4521 7.50098C29.4033 7.40723 29.3291 7.33496 29.2295 7.28418C29.1299 7.2334 29.0068 7.20801 28.8604 7.20801C28.7236 7.20801 28.6035 7.23145 28.5 7.27832C28.3984 7.3252 28.3184 7.38672 28.2598 7.46289C28.2031 7.53906 28.1748 7.62109 28.1748 7.70898H27.6328C27.6328 7.5957 27.6621 7.4834 27.7207 7.37207C27.7793 7.26074 27.8633 7.16016 27.9727 7.07031C28.084 6.97852 28.2168 6.90625 28.3711 6.85352C28.5273 6.79883 28.7012 6.77148 28.8926 6.77148C29.123 6.77148 29.3262 6.81055 29.502 6.88867C29.6797 6.9668 29.8184 7.08496 29.918 7.24316C30.0195 7.39941 30.0703 7.5957 30.0703 7.83203V9.30859C30.0703 9.41406 30.0791 9.52637 30.0967 9.64551C30.1162 9.76465 30.1445 9.86719 30.1816 9.95312V10H29.6162C29.5889 9.9375 29.5674 9.85449 29.5518 9.75098C29.5361 9.64551 29.5283 9.54785 29.5283 9.45801ZM29.6221 8.07812L29.6279 8.45898H29.0801C28.9258 8.45898 28.7881 8.47168 28.667 8.49707C28.5459 8.52051 28.4443 8.55664 28.3623 8.60547C28.2803 8.6543 28.2178 8.71582 28.1748 8.79004C28.1318 8.8623 28.1104 8.94727 28.1104 9.04492C28.1104 9.14453 28.1328 9.23535 28.1777 9.31738C28.2227 9.39941 28.29 9.46484 28.3799 9.51367C28.4717 9.56055 28.584 9.58398 28.7168 9.58398C28.8828 9.58398 29.0293 9.54883 29.1562 9.47852C29.2832 9.4082 29.3838 9.32227 29.458 9.2207C29.5342 9.11914 29.5752 9.02051 29.5811 8.9248L29.8125 9.18555C29.7988 9.26758 29.7617 9.3584 29.7012 9.45801C29.6406 9.55762 29.5596 9.65332 29.458 9.74512C29.3584 9.83496 29.2393 9.91016 29.1006 9.9707C28.9639 10.0293 28.8096 10.0586 28.6377 10.0586C28.4229 10.0586 28.2344 10.0166 28.0723 9.93262C27.9121 9.84863 27.7871 9.73633 27.6973 9.5957C27.6094 9.45312 27.5654 9.29395 27.5654 9.11816C27.5654 8.94824 27.5986 8.79883 27.665 8.66992C27.7314 8.53906 27.8271 8.43066 27.9521 8.34473C28.0771 8.25684 28.2275 8.19043 28.4033 8.14551C28.5791 8.10059 28.7754 8.07812 28.9922 8.07812H29.6221ZM31.5117 6.83008V10H30.9668V6.83008H31.5117ZM30.9258 5.98926C30.9258 5.90137 30.9521 5.82715 31.0049 5.7666C31.0596 5.70605 31.1396 5.67578 31.2451 5.67578C31.3486 5.67578 31.4277 5.70605 31.4824 5.7666C31.5391 5.82715 31.5674 5.90137 31.5674 5.98926C31.5674 6.07324 31.5391 6.14551 31.4824 6.20605C31.4277 6.26465 31.3486 6.29395 31.2451 6.29395C31.1396 6.29395 31.0596 6.26465 31.0049 6.20605C30.9521 6.14551 30.9258 6.07324 30.9258 5.98926ZM32.9707 5.5V10H32.4258V5.5H32.9707ZM34.6436 9.4375L35.458 6.83008H35.8154L35.7451 7.34863L34.916 10H34.5674L34.6436 9.4375ZM34.0957 6.83008L34.79 9.4668L34.8398 10H34.4736L33.5537 6.83008H34.0957ZM36.5947 9.44629L37.2568 6.83008H37.7959L36.876 10H36.5127L36.5947 9.44629ZM35.8945 6.83008L36.6914 9.39355L36.7822 10H36.4365L35.584 7.34277L35.5137 6.83008H35.8945ZM38.9414 6.83008V10H38.3965V6.83008H38.9414ZM38.3555 5.98926C38.3555 5.90137 38.3818 5.82715 38.4346 5.7666C38.4893 5.70605 38.5693 5.67578 38.6748 5.67578C38.7783 5.67578 38.8574 5.70605 38.9121 5.7666C38.9688 5.82715 38.9971 5.90137 38.9971 5.98926C38.9971 6.07324 38.9688 6.14551 38.9121 6.20605C38.8574 6.26465 38.7783 6.29395 38.6748 6.29395C38.5693 6.29395 38.4893 6.26465 38.4346 6.20605C38.3818 6.14551 38.3555 6.07324 38.3555 5.98926ZM40.3535 7.50684V10H39.8115V6.83008H40.3242L40.3535 7.50684ZM40.2246 8.29492L39.999 8.28613C40.001 8.06934 40.0332 7.86914 40.0957 7.68555C40.1582 7.5 40.2461 7.33887 40.3594 7.20215C40.4727 7.06543 40.6074 6.95996 40.7637 6.88574C40.9219 6.80957 41.0967 6.77148 41.2881 6.77148C41.4443 6.77148 41.585 6.79297 41.71 6.83594C41.835 6.87695 41.9414 6.94336 42.0293 7.03516C42.1191 7.12695 42.1875 7.24609 42.2344 7.39258C42.2812 7.53711 42.3047 7.71387 42.3047 7.92285V10H41.7598V7.91699C41.7598 7.75098 41.7354 7.61816 41.6865 7.51855C41.6377 7.41699 41.5664 7.34375 41.4727 7.29883C41.3789 7.25195 41.2637 7.22852 41.127 7.22852C40.9922 7.22852 40.8691 7.25684 40.7578 7.31348C40.6484 7.37012 40.5537 7.44824 40.4736 7.54785C40.3955 7.64746 40.334 7.76172 40.2891 7.89062C40.2461 8.01758 40.2246 8.15234 40.2246 8.29492ZM45.126 9.38477V5.5H45.6709V10H45.1729L45.126 9.38477ZM42.9932 8.4502V8.38867C42.9932 8.14648 43.0225 7.92676 43.0811 7.72949C43.1416 7.53027 43.2266 7.35938 43.3359 7.2168C43.4473 7.07422 43.5791 6.96484 43.7314 6.88867C43.8857 6.81055 44.0576 6.77148 44.2471 6.77148C44.4463 6.77148 44.6201 6.80664 44.7686 6.87695C44.9189 6.94531 45.0459 7.0459 45.1494 7.17871C45.2549 7.30957 45.3379 7.46777 45.3984 7.65332C45.459 7.83887 45.501 8.04883 45.5244 8.2832V8.55273C45.5029 8.78516 45.4609 8.99414 45.3984 9.17969C45.3379 9.36523 45.2549 9.52344 45.1494 9.6543C45.0459 9.78516 44.9189 9.88574 44.7686 9.95605C44.6182 10.0244 44.4424 10.0586 44.2412 10.0586C44.0557 10.0586 43.8857 10.0186 43.7314 9.93848C43.5791 9.8584 43.4473 9.74609 43.3359 9.60156C43.2266 9.45703 43.1416 9.28711 43.0811 9.0918C43.0225 8.89453 42.9932 8.68066 42.9932 8.4502ZM43.5381 8.38867V8.4502C43.5381 8.6084 43.5537 8.75684 43.585 8.89551C43.6182 9.03418 43.6689 9.15625 43.7373 9.26172C43.8057 9.36719 43.8926 9.4502 43.998 9.51074C44.1035 9.56934 44.2295 9.59863 44.376 9.59863C44.5557 9.59863 44.7031 9.56055 44.8184 9.48438C44.9355 9.4082 45.0293 9.30762 45.0996 9.18262C45.1699 9.05762 45.2246 8.92188 45.2637 8.77539V8.06934C45.2402 7.96191 45.2061 7.8584 45.1611 7.75879C45.1182 7.65723 45.0615 7.56738 44.9912 7.48926C44.9229 7.40918 44.8379 7.3457 44.7363 7.29883C44.6367 7.25195 44.5186 7.22852 44.3818 7.22852C44.2334 7.22852 44.1055 7.25977 43.998 7.32227C43.8926 7.38281 43.8057 7.4668 43.7373 7.57422C43.6689 7.67969 43.6182 7.80273 43.585 7.94336C43.5537 8.08203 43.5381 8.23047 43.5381 8.38867ZM50.6602 8.64355H51.2227C51.1934 8.91309 51.1162 9.1543 50.9912 9.36719C50.8662 9.58008 50.6895 9.74902 50.4609 9.87402C50.2324 9.99707 49.9473 10.0586 49.6055 10.0586C49.3555 10.0586 49.1279 10.0117 48.9229 9.91797C48.7197 9.82422 48.5449 9.69141 48.3984 9.51953C48.252 9.3457 48.1387 9.1377 48.0586 8.89551C47.9805 8.65137 47.9414 8.37988 47.9414 8.08105V7.65625C47.9414 7.35742 47.9805 7.08691 48.0586 6.84473C48.1387 6.60059 48.2529 6.3916 48.4014 6.21777C48.5518 6.04395 48.7324 5.91016 48.9434 5.81641C49.1543 5.72266 49.3916 5.67578 49.6553 5.67578C49.9775 5.67578 50.25 5.73633 50.4727 5.85742C50.6953 5.97852 50.8682 6.14648 50.9912 6.36133C51.1162 6.57422 51.1934 6.82129 51.2227 7.10254H50.6602C50.6328 6.90332 50.582 6.73242 50.5078 6.58984C50.4336 6.44531 50.3281 6.33398 50.1914 6.25586C50.0547 6.17773 49.876 6.13867 49.6553 6.13867C49.4658 6.13867 49.2988 6.1748 49.1543 6.24707C49.0117 6.31934 48.8916 6.42188 48.7939 6.55469C48.6982 6.6875 48.626 6.84668 48.5771 7.03223C48.5283 7.21777 48.5039 7.42383 48.5039 7.65039V8.08105C48.5039 8.29004 48.5254 8.48633 48.5684 8.66992C48.6133 8.85352 48.6807 9.01465 48.7705 9.15332C48.8604 9.29199 48.9746 9.40137 49.1133 9.48145C49.252 9.55957 49.416 9.59863 49.6055 9.59863C49.8457 9.59863 50.0371 9.56055 50.1797 9.48438C50.3223 9.4082 50.4297 9.29883 50.502 9.15625C50.5762 9.01367 50.6289 8.84277 50.6602 8.64355ZM54.2666 8.92188C54.2666 8.82227 54.251 8.73438 54.2197 8.6582C54.1904 8.58008 54.1377 8.50977 54.0615 8.44727C53.9873 8.38477 53.8838 8.3252 53.751 8.26855C53.6201 8.21191 53.4541 8.1543 53.2529 8.0957C53.042 8.0332 52.8516 7.96387 52.6816 7.8877C52.5117 7.80957 52.3662 7.7207 52.2451 7.62109C52.124 7.52148 52.0312 7.40723 51.9668 7.27832C51.9023 7.14941 51.8701 7.00195 51.8701 6.83594C51.8701 6.66992 51.9043 6.5166 51.9727 6.37598C52.041 6.23535 52.1387 6.11328 52.2656 6.00977C52.3945 5.9043 52.5479 5.82227 52.7256 5.76367C52.9033 5.70508 53.1016 5.67578 53.3203 5.67578C53.6406 5.67578 53.9121 5.7373 54.1348 5.86035C54.3594 5.98145 54.5303 6.14062 54.6475 6.33789C54.7646 6.5332 54.8232 6.74219 54.8232 6.96484H54.2607C54.2607 6.80469 54.2266 6.66309 54.1582 6.54004C54.0898 6.41504 53.9863 6.31738 53.8477 6.24707C53.709 6.1748 53.5332 6.13867 53.3203 6.13867C53.1191 6.13867 52.9531 6.16895 52.8223 6.22949C52.6914 6.29004 52.5938 6.37207 52.5293 6.47559C52.4668 6.5791 52.4355 6.69727 52.4355 6.83008C52.4355 6.91992 52.4541 7.00195 52.4912 7.07617C52.5303 7.14844 52.5898 7.21582 52.6699 7.27832C52.752 7.34082 52.8555 7.39844 52.9805 7.45117C53.1074 7.50391 53.2588 7.55469 53.4346 7.60352C53.6768 7.67188 53.8857 7.74805 54.0615 7.83203C54.2373 7.91602 54.3818 8.01074 54.4951 8.11621C54.6104 8.21973 54.6953 8.33789 54.75 8.4707C54.8066 8.60156 54.835 8.75 54.835 8.91602C54.835 9.08984 54.7998 9.24707 54.7295 9.3877C54.6592 9.52832 54.5586 9.64844 54.4277 9.74805C54.2969 9.84766 54.1396 9.9248 53.9561 9.97949C53.7744 10.0322 53.5713 10.0586 53.3467 10.0586C53.1494 10.0586 52.9551 10.0312 52.7637 9.97656C52.5742 9.92188 52.4014 9.83984 52.2451 9.73047C52.0908 9.62109 51.9668 9.48633 51.873 9.32617C51.7812 9.16406 51.7354 8.97656 51.7354 8.76367H52.2979C52.2979 8.91016 52.3262 9.03613 52.3828 9.1416C52.4395 9.24512 52.5166 9.33105 52.6143 9.39941C52.7139 9.46777 52.8262 9.51855 52.9512 9.55176C53.0781 9.58301 53.21 9.59863 53.3467 9.59863C53.5439 9.59863 53.7109 9.57129 53.8477 9.5166C53.9844 9.46191 54.0879 9.38379 54.1582 9.28223C54.2305 9.18066 54.2666 9.06055 54.2666 8.92188ZM57.8291 8.92188C57.8291 8.82227 57.8135 8.73438 57.7822 8.6582C57.7529 8.58008 57.7002 8.50977 57.624 8.44727C57.5498 8.38477 57.4463 8.3252 57.3135 8.26855C57.1826 8.21191 57.0166 8.1543 56.8154 8.0957C56.6045 8.0332 56.4141 7.96387 56.2441 7.8877C56.0742 7.80957 55.9287 7.7207 55.8076 7.62109C55.6865 7.52148 55.5938 7.40723 55.5293 7.27832C55.4648 7.14941 55.4326 7.00195 55.4326 6.83594C55.4326 6.66992 55.4668 6.5166 55.5352 6.37598C55.6035 6.23535 55.7012 6.11328 55.8281 6.00977C55.957 5.9043 56.1104 5.82227 56.2881 5.76367C56.4658 5.70508 56.6641 5.67578 56.8828 5.67578C57.2031 5.67578 57.4746 5.7373 57.6973 5.86035C57.9219 5.98145 58.0928 6.14062 58.21 6.33789C58.3271 6.5332 58.3857 6.74219 58.3857 6.96484H57.8232C57.8232 6.80469 57.7891 6.66309 57.7207 6.54004C57.6523 6.41504 57.5488 6.31738 57.4102 6.24707C57.2715 6.1748 57.0957 6.13867 56.8828 6.13867C56.6816 6.13867 56.5156 6.16895 56.3848 6.22949C56.2539 6.29004 56.1562 6.37207 56.0918 6.47559C56.0293 6.5791 55.998 6.69727 55.998 6.83008C55.998 6.91992 56.0166 7.00195 56.0537 7.07617C56.0928 7.14844 56.1523 7.21582 56.2324 7.27832C56.3145 7.34082 56.418 7.39844 56.543 7.45117C56.6699 7.50391 56.8213 7.55469 56.9971 7.60352C57.2393 7.67188 57.4482 7.74805 57.624 7.83203C57.7998 7.91602 57.9443 8.01074 58.0576 8.11621C58.1729 8.21973 58.2578 8.33789 58.3125 8.4707C58.3691 8.60156 58.3975 8.75 58.3975 8.91602C58.3975 9.08984 58.3623 9.24707 58.292 9.3877C58.2217 9.52832 58.1211 9.64844 57.9902 9.74805C57.8594 9.84766 57.7021 9.9248 57.5186 9.97949C57.3369 10.0322 57.1338 10.0586 56.9092 10.0586C56.7119 10.0586 56.5176 10.0312 56.3262 9.97656C56.1367 9.92188 55.9639 9.83984 55.8076 9.73047C55.6533 9.62109 55.5293 9.48633 55.4355 9.32617C55.3438 9.16406 55.2979 8.97656 55.2979 8.76367H55.8604C55.8604 8.91016 55.8887 9.03613 55.9453 9.1416C56.002 9.24512 56.0791 9.33105 56.1768 9.39941C56.2764 9.46777 56.3887 9.51855 56.5137 9.55176C56.6406 9.58301 56.7725 9.59863 56.9092 9.59863C57.1064 9.59863 57.2734 9.57129 57.4102 9.5166C57.5469 9.46191 57.6504 9.38379 57.7207 9.28223C57.793 9.18066 57.8291 9.06055 57.8291 8.92188Z" fill="white"/>
<path d="M11.5 3C9.50002 3 8.24998 4.00002 7.75 6C8.5 4.99998 9.37498 4.62498 10.375 4.875C10.9455 5.01762 11.3533 5.43158 11.8047 5.88973C12.5401 6.63615 13.3911 7.5 15.25 7.5C17.25 7.5 18.5 6.49998 19 4.5C18.25 5.50002 17.375 5.87502 16.375 5.625C15.8045 5.48238 15.3967 5.06842 14.9453 4.61027C14.2099 3.86385 13.3589 3 11.5 3ZM7.75 7.5C5.75002 7.5 4.49998 8.50002 4 10.5C4.75 9.49998 5.62498 9.12498 6.625 9.375C7.19553 9.51762 7.60334 9.93158 8.05475 10.3897C8.7901 11.1362 9.64111 12 11.5 12C13.5 12 14.75 11 15.25 9C14.5 10 13.625 10.375 12.625 10.125C12.0545 9.98238 11.6467 9.56842 11.1953 9.11027C10.4599 8.36385 9.60889 7.5 7.75 7.5Z" fill="url(#paint0_linear_118_18)"/>
<defs>
<linearGradient id="paint0_linear_118_18" x1="-37.67" y1="291" x2="1257.82" y2="1037.96" gradientUnits="userSpaceOnUse">
<stop stop-color="#2298BD"/>
<stop offset="1" stop-color="#0ED7B5"/>
</linearGradient>
</defs>
</svg>
